<svg width="30" height="28" viewBox="0 0 30 28" fill="none" xmlns="http://www.w3.org/2000/svg">
<path fill-rule="evenodd" clip-rule="evenodd" d="M0 0.147705V27.1477H30V0.147705H0ZM25.0215 18.0663C24.7669 19.0602 23.8635 19.7942 22.776 19.9035C20.2017 20.1618 17.5952 20.1635 14.9989 20.1618C12.4037 20.1635 9.79728 20.1618 7.22215 19.9035C6.13437 19.7942 5.23101 19.0602 4.97776 18.0663C4.61539 16.6512 4.61539 15.1052 4.61539 13.6476C4.61539 12.1901 4.61967 10.6448 4.98171 9.22973C5.23497 8.23483 6.13866 7.50185 7.22506 7.39261C9.80044 7.13358 12.408 7.13258 15.0032 7.13358C17.5982 7.13263 20.2049 7.13358 22.78 7.39261C23.8678 7.50185 24.7712 8.23483 25.0255 9.22973C25.3878 10.6448 25.3846 12.1901 25.3846 13.6476C25.3846 15.1052 25.3836 16.6512 25.0215 18.0663Z" fill="white"/>
<path fill-rule="evenodd" clip-rule="evenodd" d="M12.3203 16.5494C14.5269 15.5195 16.714 14.4983 18.9228 13.4677C16.7076 12.4275 14.5208 11.4014 12.3203 10.3679V16.5494Z" fill="white"/>
</svg>
