<svg width="44" height="40" viewBox="0 0 44 40" fill="none" xmlns="http://www.w3.org/2000/svg">
<g clip-path="url(#clip0_191_9)" filter="url(#filter0_d_191_9)">
<path d="M40.0442 7.24522C38.7139 7.80303 37.288 8.17756 35.7889 8.34756C37.3189 7.48163 38.4945 6.111 39.0458 4.48006C37.617 5.27959 36.028 5.86131 34.3433 6.17475C32.9933 4.81475 31.0695 3.96741 28.9405 3.96741C24.8511 3.96741 21.5352 7.09647 21.5352 10.9587C21.5352 11.5058 21.6027 12.0398 21.7292 12.5524C15.5755 12.2602 10.122 9.47647 6.46859 5.24506C5.83016 6.281 5.46734 7.48163 5.46734 8.76194C5.46734 11.1871 6.77234 13.328 8.76078 14.5844C7.54578 14.5473 6.40391 14.2312 5.40547 13.7079C5.40547 13.7371 5.40547 13.7663 5.40547 13.7955C5.40547 17.1849 7.95922 20.0085 11.3427 20.654C10.7239 20.8133 10.0686 20.8983 9.39359 20.8983C8.91547 20.8983 8.45141 20.8558 7.99859 20.7708C8.94359 23.5466 11.6773 25.5733 14.9145 25.6291C12.3833 27.5044 9.19109 28.6201 5.72047 28.6201C5.12141 28.6201 4.53359 28.5882 3.95703 28.5218C7.23078 30.5087 11.1233 31.6641 15.3055 31.6641C28.9236 31.6641 36.3711 21.0099 36.3711 11.7715C36.3711 11.4687 36.3627 11.1632 36.3514 10.8657C37.797 9.88022 39.0514 8.64772 40.0442 7.24522Z" fill="white"/>
</g>
<defs>
<filter id="filter0_d_191_9" x="0" y="0.147705" width="44" height="42" filterUnits="userSpaceOnUse" color-interpolation-filters="sRGB">
<feFlood flood-opacity="0" result="BackgroundImageFix"/>
<feColorMatrix in="SourceAlpha" type="matrix" values="0 0 0 0 0 0 0 0 0 0 0 0 0 0 0 0 0 0 127 0" result="hardAlpha"/>
<feOffset dy="4"/>
<feGaussianBlur stdDeviation="2"/>
<feComposite in2="hardAlpha" operator="out"/>
<feColorMatrix type="matrix" values="0 0 0 0 0 0 0 0 0 0 0 0 0 0 0 0 0 0 0.25 0"/>
<feBlend mode="normal" in2="BackgroundImageFix" result="effect1_dropShadow_191_9"/>
<feBlend mode="normal" in="SourceGraphic" in2="effect1_dropShadow_191_9" result="shape"/>
</filter>
<clipPath id="clip0_191_9">
<rect width="36" height="34" fill="white" transform="translate(4 0.147705)"/>
</clipPath>
</defs>
</svg>
