<svg width="40" height="42" viewBox="0 0 40 42" fill="none" xmlns="http://www.w3.org/2000/svg">
<g filter="url(#filter0_d_0_15)">
<mask id="mask0_0_15" style="mask-type:alpha" maskUnits="userSpaceOnUse" x="0" y="0" width="40" height="39">
<rect x="0.5" y="1.10352" width="38.2299" height="36.5442" fill="white" stroke="white"/>
</mask>
<g mask="url(#mask0_0_15)">
<path d="M13.0752 32.9548C10.909 32.9548 9.10056 32.2439 7.61819 30.8253C6.1368 29.4075 5.40234 27.6869 5.40234 25.6331V13.1183C5.40234 11.0645 6.1368 9.34389 7.61819 7.92615C9.10056 6.50748 10.909 5.79663 13.0752 5.79663H26.1518C28.318 5.79663 30.1265 6.50748 31.6089 7.92615C33.0903 9.34389 33.8247 11.0645 33.8247 13.1183V25.6331C33.8247 27.6869 33.0903 29.4075 31.6089 30.8253C30.1265 32.2439 28.318 32.9548 26.1518 32.9548H13.0752ZM13.0752 30.8261H26.1518C27.6604 30.8261 28.9518 30.3331 29.9915 29.3381C31.0323 28.3419 31.5556 27.0958 31.5556 25.6331V13.1183C31.5556 11.6556 31.0323 10.4095 29.9915 9.41333C28.9518 8.41833 27.6604 7.92531 26.1518 7.92531H13.0752C11.5667 7.92531 10.2753 8.41833 9.23561 9.41333C8.19475 10.4095 7.6715 11.6556 7.6715 13.1183V25.6331C7.6715 27.0958 8.19475 28.3419 9.23561 29.3381C10.2753 30.3331 11.5667 30.8261 13.0752 30.8261ZM19.6135 26.6974C17.4473 26.6974 15.6389 25.9866 14.1565 24.5679C12.6751 23.1502 11.9407 21.4296 11.9407 19.3757C11.9407 17.3218 12.6751 15.6013 14.1565 14.1835C15.6389 12.7648 17.4473 12.054 19.6135 12.054C21.7797 12.054 23.5882 12.7648 25.0706 14.1835C26.552 15.6013 27.2864 17.3218 27.2864 19.3757C27.2864 21.4296 26.552 23.1502 25.0706 24.5679C23.5882 25.9866 21.7797 26.6974 19.6135 26.6974ZM19.6135 24.5687C21.1221 24.5687 22.4135 24.0757 23.4532 23.0807C24.494 22.0846 25.0173 20.8384 25.0173 19.3757C25.0173 17.913 24.494 16.6668 23.4532 15.6707C22.4135 14.6757 21.1221 14.1827 19.6135 14.1827C18.105 14.1827 16.8136 14.6757 15.7739 15.6707C14.7331 16.6668 14.2098 17.913 14.2098 19.3757C14.2098 20.8384 14.7331 22.0846 15.7739 23.0807C16.8136 24.0757 18.105 24.5687 19.6135 24.5687Z" fill="white" stroke="white"/>
</g>
</g>
<defs>
<filter id="filter0_d_0_15" x="0.902344" y="5.29663" width="37.4219" height="36.1582" filterUnits="userSpaceOnUse" color-interpolation-filters="sRGB">
<feFlood flood-opacity="0" result="BackgroundImageFix"/>
<feColorMatrix in="SourceAlpha" type="matrix" values="0 0 0 0 0 0 0 0 0 0 0 0 0 0 0 0 0 0 127 0" result="hardAlpha"/>
<feOffset dy="4"/>
<feGaussianBlur stdDeviation="2"/>
<feComposite in2="hardAlpha" operator="out"/>
<feColorMatrix type="matrix" values="0 0 0 0 0 0 0 0 0 0 0 0 0 0 0 0 0 0 0.25 0"/>
<feBlend mode="normal" in2="BackgroundImageFix" result="effect1_dropShadow_0_15"/>
<feBlend mode="normal" in="SourceGraphic" in2="effect1_dropShadow_0_15" result="shape"/>
</filter>
</defs>
</svg>
