<svg width="92" height="28" viewBox="0 0 92 28" fill="none" xmlns="http://www.w3.org/2000/svg">
<path d="M16.082 20.5312C16.082 19.9336 15.9883 19.4062 15.8008 18.9492C15.625 18.4805 15.3086 18.0586 14.8516 17.6836C14.4062 17.3086 13.7852 16.9512 12.9883 16.6113C12.2031 16.2715 11.207 15.9258 10 15.5742C8.73438 15.1992 7.5918 14.7832 6.57227 14.3262C5.55273 13.8574 4.67969 13.3242 3.95312 12.7266C3.22656 12.1289 2.66992 11.4434 2.2832 10.6699C1.89648 9.89648 1.70312 9.01172 1.70312 8.01562C1.70312 7.01953 1.9082 6.09961 2.31836 5.25586C2.72852 4.41211 3.31445 3.67969 4.07617 3.05859C4.84961 2.42578 5.76953 1.93359 6.83594 1.58203C7.90234 1.23047 9.0918 1.05469 10.4043 1.05469C12.3262 1.05469 13.9551 1.42383 15.291 2.16211C16.6387 2.88867 17.6641 3.84375 18.3672 5.02734C19.0703 6.19922 19.4219 7.45312 19.4219 8.78906H16.0469C16.0469 7.82812 15.8418 6.97852 15.4316 6.24023C15.0215 5.49023 14.4004 4.9043 13.5684 4.48242C12.7363 4.04883 11.6816 3.83203 10.4043 3.83203C9.19727 3.83203 8.20117 4.01367 7.41602 4.37695C6.63086 4.74023 6.04492 5.23242 5.6582 5.85352C5.2832 6.47461 5.0957 7.18359 5.0957 7.98047C5.0957 8.51953 5.20703 9.01172 5.42969 9.45703C5.66406 9.89062 6.02148 10.2949 6.50195 10.6699C6.99414 11.0449 7.61523 11.3906 8.36523 11.707C9.12695 12.0234 10.0352 12.3281 11.0898 12.6211C12.543 13.0312 13.7969 13.4883 14.8516 13.9922C15.9062 14.4961 16.7734 15.0645 17.4531 15.6973C18.1445 16.3184 18.6543 17.0273 18.9824 17.8242C19.3223 18.6094 19.4922 19.5 19.4922 20.4961C19.4922 21.5391 19.2812 22.4824 18.8594 23.3262C18.4375 24.1699 17.834 24.8906 17.0488 25.4883C16.2637 26.0859 15.3203 26.5488 14.2188 26.877C13.1289 27.1934 11.9102 27.3516 10.5625 27.3516C9.37891 27.3516 8.21289 27.1875 7.06445 26.8594C5.92773 26.5312 4.89062 26.0391 3.95312 25.3828C3.02734 24.7266 2.2832 23.918 1.7207 22.957C1.16992 21.9844 0.894531 20.8594 0.894531 19.582H4.26953C4.26953 20.4609 4.43945 21.2168 4.7793 21.8496C5.11914 22.4707 5.58203 22.9863 6.16797 23.3965C6.76562 23.8066 7.43945 24.1113 8.18945 24.3105C8.95117 24.498 9.74219 24.5918 10.5625 24.5918C11.7461 24.5918 12.748 24.4277 13.5684 24.0996C14.3887 23.7715 15.0098 23.3027 15.4316 22.6934C15.8652 22.084 16.082 21.3633 16.082 20.5312Z" fill="white"/>
<path d="M22.4629 17.7012V17.2969C22.4629 15.9258 22.6621 14.6543 23.0605 13.4824C23.459 12.2988 24.0332 11.2734 24.7832 10.4062C25.5332 9.52734 26.4414 8.84766 27.5078 8.36719C28.5742 7.875 29.7695 7.62891 31.0938 7.62891C32.4297 7.62891 33.6309 7.875 34.6973 8.36719C35.7754 8.84766 36.6895 9.52734 37.4395 10.4062C38.2012 11.2734 38.7812 12.2988 39.1797 13.4824C39.5781 14.6543 39.7773 15.9258 39.7773 17.2969V17.7012C39.7773 19.0723 39.5781 20.3438 39.1797 21.5156C38.7812 22.6875 38.2012 23.7129 37.4395 24.5918C36.6895 25.459 35.7812 26.1387 34.7148 26.6309C33.6602 27.1113 32.4648 27.3516 31.1289 27.3516C29.793 27.3516 28.5918 27.1113 27.5254 26.6309C26.459 26.1387 25.5449 25.459 24.7832 24.5918C24.0332 23.7129 23.459 22.6875 23.0605 21.5156C22.6621 20.3438 22.4629 19.0723 22.4629 17.7012ZM25.7148 17.2969V17.7012C25.7148 18.6504 25.8262 19.5469 26.0488 20.3906C26.2715 21.2227 26.6055 21.9609 27.0508 22.6055C27.5078 23.25 28.0762 23.7598 28.7559 24.1348C29.4355 24.498 30.2266 24.6797 31.1289 24.6797C32.0195 24.6797 32.7988 24.498 33.4668 24.1348C34.1465 23.7598 34.709 23.25 35.1543 22.6055C35.5996 21.9609 35.9336 21.2227 36.1562 20.3906C36.3906 19.5469 36.5078 18.6504 36.5078 17.7012V17.2969C36.5078 16.3594 36.3906 15.4746 36.1562 14.6426C35.9336 13.7988 35.5938 13.0547 35.1367 12.4102C34.6914 11.7539 34.1289 11.2383 33.4492 10.8633C32.7812 10.4883 31.9961 10.3008 31.0938 10.3008C30.2031 10.3008 29.418 10.4883 28.7383 10.8633C28.0703 11.2383 27.5078 11.7539 27.0508 12.4102C26.6055 13.0547 26.2715 13.7988 26.0488 14.6426C25.8262 15.4746 25.7148 16.3594 25.7148 17.2969Z" fill="white"/>
<path d="M43.8379 0H47.1074V23.3086L46.8262 27H43.8379V0ZM59.957 17.332V17.7012C59.957 19.084 59.793 20.3672 59.4648 21.5508C59.1367 22.7227 58.6562 23.7422 58.0234 24.6094C57.3906 25.4766 56.6172 26.1504 55.7031 26.6309C54.7891 27.1113 53.7402 27.3516 52.5566 27.3516C51.3496 27.3516 50.2891 27.1465 49.375 26.7363C48.4727 26.3145 47.7109 25.7109 47.0898 24.9258C46.4688 24.1406 45.9707 23.1914 45.5957 22.0781C45.2324 20.9648 44.9805 19.7109 44.8398 18.3164V16.6992C44.9805 15.293 45.2324 14.0332 45.5957 12.9199C45.9707 11.8066 46.4688 10.8574 47.0898 10.0723C47.7109 9.27539 48.4727 8.67188 49.375 8.26172C50.2773 7.83984 51.3262 7.62891 52.5215 7.62891C53.7168 7.62891 54.7773 7.86328 55.7031 8.33203C56.6289 8.78906 57.4023 9.44531 58.0234 10.3008C58.6562 11.1562 59.1367 12.1816 59.4648 13.377C59.793 14.5605 59.957 15.8789 59.957 17.332ZM56.6875 17.7012V17.332C56.6875 16.3828 56.5996 15.4922 56.4238 14.6602C56.248 13.8164 55.9668 13.0781 55.5801 12.4453C55.1934 11.8008 54.6836 11.2969 54.0508 10.9336C53.418 10.5586 52.6387 10.3711 51.7129 10.3711C50.8926 10.3711 50.1777 10.5117 49.5684 10.793C48.9707 11.0742 48.4609 11.4551 48.0391 11.9355C47.6172 12.4043 47.2715 12.9434 47.002 13.5527C46.7441 14.1504 46.5508 14.7715 46.4219 15.416V19.6523C46.6094 20.4727 46.9141 21.2637 47.3359 22.0254C47.7695 22.7754 48.3438 23.3906 49.0586 23.8711C49.7852 24.3516 50.6816 24.5918 51.748 24.5918C52.627 24.5918 53.377 24.416 53.998 24.0645C54.6309 23.7012 55.1406 23.2031 55.5273 22.5703C55.9258 21.9375 56.2188 21.2051 56.4062 20.373C56.5938 19.541 56.6875 18.6504 56.6875 17.7012Z" fill="white"/>
<path d="M67.3223 10.9688V27H64.0703V7.98047H67.2344L67.3223 10.9688ZM73.2637 7.875L73.2461 10.8984C72.9766 10.8398 72.7188 10.8047 72.4727 10.793C72.2383 10.7695 71.9688 10.7578 71.6641 10.7578C70.9141 10.7578 70.252 10.875 69.6777 11.1094C69.1035 11.3438 68.6172 11.6719 68.2188 12.0938C67.8203 12.5156 67.5039 13.0195 67.2695 13.6055C67.0469 14.1797 66.9004 14.8125 66.8301 15.5039L65.916 16.0312C65.916 14.8828 66.0273 13.8047 66.25 12.7969C66.4844 11.7891 66.8418 10.8984 67.3223 10.125C67.8027 9.33984 68.4121 8.73047 69.1504 8.29688C69.9004 7.85156 70.791 7.62891 71.8223 7.62891C72.0566 7.62891 72.3262 7.6582 72.6309 7.7168C72.9355 7.76367 73.1465 7.81641 73.2637 7.875Z" fill="white"/>
<path d="M83.8105 27.3516C82.4863 27.3516 81.2852 27.1289 80.207 26.6836C79.1406 26.2266 78.2207 25.5879 77.4473 24.7676C76.6855 23.9473 76.0996 22.9746 75.6895 21.8496C75.2793 20.7246 75.0742 19.4941 75.0742 18.1582V17.4199C75.0742 15.873 75.3027 14.4961 75.7598 13.2891C76.2168 12.0703 76.8379 11.0391 77.623 10.1953C78.4082 9.35156 79.2988 8.71289 80.2949 8.2793C81.291 7.8457 82.3223 7.62891 83.3887 7.62891C84.748 7.62891 85.9199 7.86328 86.9043 8.33203C87.9004 8.80078 88.7148 9.45703 89.3477 10.3008C89.9805 11.1328 90.4492 12.1172 90.7539 13.2539C91.0586 14.3789 91.2109 15.6094 91.2109 16.9453V18.4043H77.0078V15.75H87.959V15.5039C87.9121 14.6602 87.7363 13.8398 87.4316 13.043C87.1387 12.2461 86.6699 11.5898 86.0254 11.0742C85.3809 10.5586 84.502 10.3008 83.3887 10.3008C82.6504 10.3008 81.9707 10.459 81.3496 10.7754C80.7285 11.0801 80.1953 11.5371 79.75 12.1465C79.3047 12.7559 78.959 13.5 78.7129 14.3789C78.4668 15.2578 78.3438 16.2715 78.3438 17.4199V18.1582C78.3438 19.0605 78.4668 19.9102 78.7129 20.707C78.9707 21.4922 79.3398 22.1836 79.8203 22.7812C80.3125 23.3789 80.9043 23.8477 81.5957 24.1875C82.2988 24.5273 83.0957 24.6973 83.9863 24.6973C85.1348 24.6973 86.1074 24.4629 86.9043 23.9941C87.7012 23.5254 88.3984 22.8984 88.9961 22.1133L90.9648 23.6777C90.5547 24.2988 90.0332 24.8906 89.4004 25.4531C88.7676 26.0156 87.9883 26.4727 87.0625 26.8242C86.1484 27.1758 85.0645 27.3516 83.8105 27.3516Z" fill="white"/>
</svg>
