<svg width="781" height="100" viewBox="0 0 781 100" fill="none" xmlns="http://www.w3.org/2000/svg">
<path d="M0 31C0 13.8792 13.8792 0 31 0H750C767.121 0 781 13.8792 781 31V69C781 86.1208 767.121 100 750 100H31C13.8792 100 0 86.1208 0 69V31Z" fill="#77BBE1" fill-opacity="0.78"/>
<path d="M40.3747 37.0508H35.5114V35.8203H40.3747C41.3903 35.8203 42.2145 35.6562 42.8474 35.3281C43.488 34.9922 43.9528 34.5391 44.2419 33.9688C44.5388 33.3984 44.6872 32.7578 44.6872 32.0469C44.6872 31.3516 44.5388 30.7109 44.2419 30.125C43.9528 29.5391 43.488 29.0703 42.8474 28.7188C42.2145 28.3594 41.3903 28.1797 40.3747 28.1797H36.0153V44H34.5739V26.9375H40.3747C41.6247 26.9375 42.6755 27.1523 43.527 27.582C44.3864 28.0117 45.0349 28.6094 45.4724 29.375C45.9099 30.1406 46.1286 31.0234 46.1286 32.0234C46.1286 33.0703 45.9099 33.9727 45.4724 34.7305C45.0349 35.4805 44.3903 36.0547 43.5388 36.4531C42.6872 36.8516 41.6325 37.0508 40.3747 37.0508Z" fill="white"/>
<path d="M56.8452 41.7266V35.1875C56.8452 34.5859 56.7202 34.0664 56.4702 33.6289C56.2202 33.1914 55.853 32.8555 55.3686 32.6211C54.8842 32.3867 54.2866 32.2695 53.5756 32.2695C52.9194 32.2695 52.3335 32.3867 51.8178 32.6211C51.31 32.8477 50.9077 33.1562 50.6108 33.5469C50.3217 33.9297 50.1772 34.3555 50.1772 34.8242L48.771 34.8125C48.771 34.3359 48.8881 33.875 49.1225 33.4297C49.3569 32.9844 49.6889 32.5859 50.1186 32.2344C50.5483 31.8828 51.06 31.6055 51.6538 31.4023C52.2553 31.1914 52.9155 31.0859 53.6342 31.0859C54.5405 31.0859 55.3374 31.2383 56.0249 31.543C56.7202 31.8477 57.2631 32.3047 57.6538 32.9141C58.0444 33.5234 58.2397 34.2891 58.2397 35.2109V41.3398C58.2397 41.7773 58.271 42.2305 58.3335 42.6992C58.4038 43.168 58.5014 43.5547 58.6264 43.8594V44H57.1381C57.0444 43.7188 56.9702 43.3672 56.9155 42.9453C56.8686 42.5156 56.8452 42.1094 56.8452 41.7266ZM57.1733 36.6172L57.1967 37.6953H54.4428C53.7241 37.6953 53.0795 37.7617 52.5092 37.8945C51.9467 38.0195 51.4702 38.207 51.0795 38.457C50.6889 38.6992 50.3881 38.9922 50.1772 39.3359C49.9741 39.6797 49.8725 40.0703 49.8725 40.5078C49.8725 40.9609 49.9858 41.375 50.2124 41.75C50.4467 42.125 50.7749 42.4258 51.1967 42.6523C51.6264 42.8711 52.1342 42.9805 52.7202 42.9805C53.5014 42.9805 54.1889 42.8359 54.7827 42.5469C55.3842 42.2578 55.8803 41.8789 56.271 41.4102C56.6616 40.9414 56.9233 40.4297 57.0561 39.875L57.6655 40.6836C57.5639 41.0742 57.3764 41.4766 57.103 41.8906C56.8374 42.2969 56.4897 42.6797 56.06 43.0391C55.6303 43.3906 55.1225 43.6797 54.5366 43.9062C53.9585 44.125 53.3022 44.2344 52.5678 44.2344C51.7397 44.2344 51.017 44.0781 50.3999 43.7656C49.7905 43.4531 49.3139 43.0273 48.9702 42.4883C48.6342 41.9414 48.4663 41.3242 48.4663 40.6367C48.4663 40.0117 48.5991 39.4531 48.8647 38.9609C49.1303 38.4609 49.5131 38.0391 50.0131 37.6953C50.521 37.3438 51.1303 37.0781 51.8413 36.8984C52.56 36.7109 53.3647 36.6172 54.2553 36.6172H57.1733Z" fill="white"/>
<path d="M63.6359 33.418V44H62.2414V31.3203H63.6008L63.6359 33.418ZM68.1242 31.2266L68.0891 32.5156C67.9328 32.4922 67.7805 32.4727 67.632 32.457C67.4836 32.4414 67.3234 32.4336 67.1516 32.4336C66.5422 32.4336 66.007 32.5469 65.5461 32.7734C65.093 32.9922 64.7102 33.3008 64.3977 33.6992C64.0852 34.0898 63.8469 34.5508 63.6828 35.082C63.5188 35.6055 63.425 36.168 63.4016 36.7695L62.8859 36.9688C62.8859 36.1406 62.9719 35.3711 63.1438 34.6602C63.3156 33.9492 63.5773 33.3281 63.9289 32.7969C64.2883 32.2578 64.7375 31.8398 65.2766 31.543C65.8234 31.2383 66.4641 31.0859 67.1984 31.0859C67.3781 31.0859 67.5539 31.1016 67.7258 31.1328C67.9055 31.1562 68.0383 31.1875 68.1242 31.2266Z" fill="white"/>
<path d="M77.8095 41.7266V35.1875C77.8095 34.5859 77.6845 34.0664 77.4345 33.6289C77.1845 33.1914 76.8174 32.8555 76.333 32.6211C75.8486 32.3867 75.2509 32.2695 74.54 32.2695C73.8838 32.2695 73.2978 32.3867 72.7822 32.6211C72.2744 32.8477 71.872 33.1562 71.5752 33.5469C71.2861 33.9297 71.1416 34.3555 71.1416 34.8242L69.7353 34.8125C69.7353 34.3359 69.8525 33.875 70.0869 33.4297C70.3213 32.9844 70.6533 32.5859 71.083 32.2344C71.5127 31.8828 72.0244 31.6055 72.6181 31.4023C73.2197 31.1914 73.8799 31.0859 74.5986 31.0859C75.5049 31.0859 76.3017 31.2383 76.9892 31.543C77.6845 31.8477 78.2275 32.3047 78.6181 32.9141C79.0088 33.5234 79.2041 34.2891 79.2041 35.2109V41.3398C79.2041 41.7773 79.2353 42.2305 79.2978 42.6992C79.3681 43.168 79.4658 43.5547 79.5908 43.8594V44H78.1025C78.0088 43.7188 77.9345 43.3672 77.8799 42.9453C77.833 42.5156 77.8095 42.1094 77.8095 41.7266ZM78.1377 36.6172L78.1611 37.6953H75.4072C74.6884 37.6953 74.0439 37.7617 73.4736 37.8945C72.9111 38.0195 72.4345 38.207 72.0439 38.457C71.6533 38.6992 71.3525 38.9922 71.1416 39.3359C70.9384 39.6797 70.8369 40.0703 70.8369 40.5078C70.8369 40.9609 70.9502 41.375 71.1767 41.75C71.4111 42.125 71.7392 42.4258 72.1611 42.6523C72.5908 42.8711 73.0986 42.9805 73.6845 42.9805C74.4658 42.9805 75.1533 42.8359 75.747 42.5469C76.3486 42.2578 76.8447 41.8789 77.2353 41.4102C77.6259 40.9414 77.8877 40.4297 78.0205 39.875L78.6299 40.6836C78.5283 41.0742 78.3408 41.4766 78.0674 41.8906C77.8017 42.2969 77.4541 42.6797 77.0244 43.0391C76.5947 43.3906 76.0869 43.6797 75.5009 43.9062C74.9228 44.125 74.2666 44.2344 73.5322 44.2344C72.7041 44.2344 71.9814 44.0781 71.3642 43.7656C70.7549 43.4531 70.2783 43.0273 69.9345 42.4883C69.5986 41.9414 69.4306 41.3242 69.4306 40.6367C69.4306 40.0117 69.5634 39.4531 69.8291 38.9609C70.0947 38.4609 70.4775 38.0391 70.9775 37.6953C71.4853 37.3438 72.0947 37.0781 72.8056 36.8984C73.5244 36.7109 74.3291 36.6172 75.2197 36.6172H78.1377Z" fill="white"/>
<path d="M97.0161 41.7266V35.1875C97.0161 34.5859 96.8911 34.0664 96.6411 33.6289C96.3911 33.1914 96.0239 32.8555 95.5395 32.6211C95.0552 32.3867 94.4575 32.2695 93.7466 32.2695C93.0903 32.2695 92.5044 32.3867 91.9888 32.6211C91.4809 32.8477 91.0786 33.1562 90.7817 33.5469C90.4927 33.9297 90.3481 34.3555 90.3481 34.8242L88.9419 34.8125C88.9419 34.3359 89.0591 33.875 89.2934 33.4297C89.5278 32.9844 89.8598 32.5859 90.2895 32.2344C90.7192 31.8828 91.2309 31.6055 91.8247 31.4023C92.4263 31.1914 93.0864 31.0859 93.8052 31.0859C94.7114 31.0859 95.5083 31.2383 96.1958 31.543C96.8911 31.8477 97.4341 32.3047 97.8247 32.9141C98.2153 33.5234 98.4106 34.2891 98.4106 35.2109V41.3398C98.4106 41.7773 98.4419 42.2305 98.5044 42.6992C98.5747 43.168 98.6723 43.5547 98.7973 43.8594V44H97.3091C97.2153 43.7188 97.1411 43.3672 97.0864 42.9453C97.0395 42.5156 97.0161 42.1094 97.0161 41.7266ZM97.3442 36.6172L97.3677 37.6953H94.6138C93.895 37.6953 93.2505 37.7617 92.6802 37.8945C92.1177 38.0195 91.6411 38.207 91.2505 38.457C90.8598 38.6992 90.5591 38.9922 90.3481 39.3359C90.145 39.6797 90.0434 40.0703 90.0434 40.5078C90.0434 40.9609 90.1567 41.375 90.3833 41.75C90.6177 42.125 90.9458 42.4258 91.3677 42.6523C91.7973 42.8711 92.3052 42.9805 92.8911 42.9805C93.6723 42.9805 94.3598 42.8359 94.9536 42.5469C95.5552 42.2578 96.0513 41.8789 96.4419 41.4102C96.8325 40.9414 97.0942 40.4297 97.227 39.875L97.8364 40.6836C97.7348 41.0742 97.5473 41.4766 97.2739 41.8906C97.0083 42.2969 96.6606 42.6797 96.2309 43.0391C95.8013 43.3906 95.2934 43.6797 94.7075 43.9062C94.1294 44.125 93.4731 44.2344 92.7388 44.2344C91.9106 44.2344 91.188 44.0781 90.5708 43.7656C89.9614 43.4531 89.4848 43.0273 89.1411 42.4883C88.8052 41.9414 88.6372 41.3242 88.6372 40.6367C88.6372 40.0117 88.77 39.4531 89.0356 38.9609C89.3013 38.4609 89.6841 38.0391 90.1841 37.6953C90.6919 37.3438 91.3013 37.0781 92.0122 36.8984C92.7309 36.7109 93.5356 36.6172 94.4263 36.6172H97.3442Z" fill="white"/>
<path d="M110.651 41.5391V26H112.057V44H110.744L110.651 41.5391ZM101.85 37.7891V37.543C101.85 36.5586 101.963 35.6719 102.19 34.8828C102.416 34.0859 102.74 33.4062 103.162 32.8438C103.592 32.2734 104.108 31.8398 104.709 31.543C105.311 31.2383 105.99 31.0859 106.748 31.0859C107.49 31.0859 108.147 31.207 108.717 31.4492C109.287 31.6914 109.776 32.0391 110.182 32.4922C110.596 32.9453 110.928 33.4844 111.178 34.1094C111.436 34.7344 111.623 35.4297 111.74 36.1953V39.3242C111.647 40.043 111.475 40.7031 111.225 41.3047C110.975 41.8984 110.643 42.418 110.229 42.8633C109.815 43.3008 109.315 43.6406 108.729 43.8828C108.151 44.1172 107.483 44.2344 106.725 44.2344C105.975 44.2344 105.299 44.0781 104.698 43.7656C104.096 43.4531 103.584 43.0117 103.162 42.4414C102.74 41.8633 102.416 41.1797 102.19 40.3906C101.963 39.6016 101.85 38.7344 101.85 37.7891ZM103.256 37.543V37.7891C103.256 38.5312 103.33 39.2188 103.479 39.8516C103.627 40.4844 103.854 41.0352 104.158 41.5039C104.463 41.9727 104.85 42.3398 105.319 42.6055C105.787 42.8711 106.342 43.0039 106.983 43.0039C107.787 43.0039 108.463 42.8516 109.01 42.5469C109.557 42.2344 109.994 41.8242 110.323 41.3164C110.651 40.8008 110.889 40.2383 111.037 39.6289V35.9844C110.944 35.5703 110.807 35.1484 110.627 34.7188C110.448 34.2891 110.201 33.8945 109.889 33.5352C109.584 33.168 109.194 32.875 108.717 32.6562C108.248 32.4297 107.678 32.3164 107.006 32.3164C106.358 32.3164 105.799 32.4492 105.33 32.7148C104.862 32.9805 104.471 33.3516 104.158 33.8281C103.854 34.2969 103.627 34.8477 103.479 35.4805C103.33 36.1133 103.256 36.8008 103.256 37.543Z" fill="white"/>
<path d="M124.227 48.875V33.7578L124.32 31.3203H125.621V48.875H124.227ZM115.426 37.7891V37.543C115.426 36.5586 115.535 35.6719 115.754 34.8828C115.973 34.0859 116.293 33.4062 116.715 32.8438C117.145 32.2734 117.66 31.8398 118.262 31.543C118.871 31.2383 119.562 31.0859 120.336 31.0859C121.078 31.0859 121.738 31.207 122.316 31.4492C122.895 31.6914 123.391 32.0391 123.805 32.4922C124.227 32.9453 124.566 33.4844 124.824 34.1094C125.082 34.7344 125.27 35.4297 125.387 36.1953V39.3242C125.293 40.043 125.117 40.7031 124.859 41.3047C124.609 41.8984 124.273 42.418 123.852 42.8633C123.43 43.3008 122.922 43.6406 122.328 43.8828C121.742 44.1172 121.07 44.2344 120.312 44.2344C119.547 44.2344 118.859 44.0781 118.25 43.7656C117.648 43.4531 117.137 43.0117 116.715 42.4414C116.301 41.8633 115.98 41.1797 115.754 40.3906C115.535 39.6016 115.426 38.7344 115.426 37.7891ZM116.832 37.543V37.7891C116.832 38.5312 116.906 39.2188 117.055 39.8516C117.211 40.4844 117.441 41.0391 117.746 41.5156C118.051 41.9922 118.438 42.3633 118.906 42.6289C119.383 42.8945 119.938 43.0273 120.57 43.0273C121.375 43.0273 122.055 42.8711 122.609 42.5586C123.164 42.2461 123.605 41.832 123.934 41.3164C124.27 40.8008 124.512 40.2383 124.66 39.6289V35.9844C124.582 35.5859 124.449 35.1719 124.262 34.7422C124.074 34.3125 123.82 33.9141 123.5 33.5469C123.188 33.1719 122.793 32.8711 122.316 32.6445C121.84 32.4102 121.266 32.293 120.594 32.293C119.953 32.293 119.395 32.4297 118.918 32.7031C118.449 32.9688 118.059 33.3398 117.746 33.8164C117.441 34.293 117.211 34.8477 117.055 35.4805C116.906 36.1133 116.832 36.8008 116.832 37.543Z" fill="white"/>
<path d="M137.732 41.0703V31.3203H139.138V44H137.791L137.732 41.0703ZM137.99 38.7266L138.717 38.7031C138.717 39.5 138.623 40.2344 138.435 40.9062C138.248 41.5781 137.955 42.1641 137.556 42.6641C137.158 43.1641 136.642 43.5508 136.01 43.8242C135.377 44.0977 134.615 44.2344 133.724 44.2344C133.107 44.2344 132.541 44.1484 132.025 43.9766C131.517 43.7969 131.08 43.5156 130.713 43.1328C130.345 42.75 130.06 42.2539 129.857 41.6445C129.662 41.0352 129.564 40.2969 129.564 39.4297V31.3203H130.959V39.4531C130.959 40.1328 131.033 40.6992 131.181 41.1523C131.338 41.6055 131.549 41.9688 131.814 42.2422C132.088 42.5156 132.4 42.7109 132.752 42.8281C133.103 42.9453 133.482 43.0039 133.888 43.0039C134.92 43.0039 135.732 42.8047 136.326 42.4062C136.928 42.0078 137.353 41.4844 137.603 40.8359C137.861 40.1797 137.99 39.4766 137.99 38.7266Z" fill="white"/>
<path d="M144.605 31.3203V44H143.21V31.3203H144.605ZM142.964 27.6523C142.964 27.3867 143.046 27.1641 143.21 26.9844C143.382 26.7969 143.617 26.7031 143.914 26.7031C144.21 26.7031 144.445 26.7969 144.617 26.9844C144.796 27.1641 144.886 27.3867 144.886 27.6523C144.886 27.9102 144.796 28.1328 144.617 28.3203C144.445 28.5 144.21 28.5898 143.914 28.5898C143.617 28.5898 143.382 28.5 143.21 28.3203C143.046 28.1328 142.964 27.9102 142.964 27.6523Z" fill="white"/>
<path d="M150.072 33.418V44H148.677V31.3203H150.036L150.072 33.418ZM154.56 31.2266L154.525 32.5156C154.368 32.4922 154.216 32.4727 154.068 32.457C153.919 32.4414 153.759 32.4336 153.587 32.4336C152.978 32.4336 152.443 32.5469 151.982 32.7734C151.529 32.9922 151.146 33.3008 150.833 33.6992C150.521 34.0898 150.283 34.5508 150.118 35.082C149.954 35.6055 149.861 36.168 149.837 36.7695L149.322 36.9688C149.322 36.1406 149.408 35.3711 149.579 34.6602C149.751 33.9492 150.013 33.3281 150.365 32.7969C150.724 32.2578 151.173 31.8398 151.712 31.543C152.259 31.2383 152.9 31.0859 153.634 31.0859C153.814 31.0859 153.99 31.1016 154.161 31.1328C154.341 31.1562 154.474 31.1875 154.56 31.2266Z" fill="white"/>
<path d="M158.562 31.3203V44H157.167V31.3203H158.562ZM156.921 27.6523C156.921 27.3867 157.003 27.1641 157.167 26.9844C157.339 26.7969 157.573 26.7031 157.87 26.7031C158.167 26.7031 158.401 26.7969 158.573 26.9844C158.753 27.1641 158.843 27.3867 158.843 27.6523C158.843 27.9102 158.753 28.1328 158.573 28.3203C158.401 28.5 158.167 28.5898 157.87 28.5898C157.573 28.5898 157.339 28.5 157.167 28.3203C157.003 28.1328 156.921 27.9102 156.921 27.6523Z" fill="white"/>
<path d="M164.028 33.418V44H162.634V31.3203H163.993L164.028 33.418ZM168.516 31.2266L168.481 32.5156C168.325 32.4922 168.173 32.4727 168.024 32.457C167.876 32.4414 167.716 32.4336 167.544 32.4336C166.934 32.4336 166.399 32.5469 165.938 32.7734C165.485 32.9922 165.102 33.3008 164.79 33.6992C164.477 34.0898 164.239 34.5508 164.075 35.082C163.911 35.6055 163.817 36.168 163.794 36.7695L163.278 36.9688C163.278 36.1406 163.364 35.3711 163.536 34.6602C163.708 33.9492 163.97 33.3281 164.321 32.7969C164.68 32.2578 165.13 31.8398 165.669 31.543C166.216 31.2383 166.856 31.0859 167.591 31.0859C167.77 31.0859 167.946 31.1016 168.118 31.1328C168.298 31.1562 168.43 31.1875 168.516 31.2266Z" fill="white"/>
<path d="M185.297 48.875V33.7578L185.391 31.3203H186.692V48.875H185.297ZM176.496 37.7891V37.543C176.496 36.5586 176.606 35.6719 176.825 34.8828C177.043 34.0859 177.364 33.4062 177.785 32.8438C178.215 32.2734 178.731 31.8398 179.332 31.543C179.942 31.2383 180.633 31.0859 181.407 31.0859C182.149 31.0859 182.809 31.207 183.387 31.4492C183.965 31.6914 184.461 32.0391 184.875 32.4922C185.297 32.9453 185.637 33.4844 185.895 34.1094C186.153 34.7344 186.34 35.4297 186.457 36.1953V39.3242C186.364 40.043 186.188 40.7031 185.93 41.3047C185.68 41.8984 185.344 42.418 184.922 42.8633C184.5 43.3008 183.992 43.6406 183.399 43.8828C182.813 44.1172 182.141 44.2344 181.383 44.2344C180.617 44.2344 179.93 44.0781 179.321 43.7656C178.719 43.4531 178.207 43.0117 177.785 42.4414C177.371 41.8633 177.051 41.1797 176.825 40.3906C176.606 39.6016 176.496 38.7344 176.496 37.7891ZM177.903 37.543V37.7891C177.903 38.5312 177.977 39.2188 178.125 39.8516C178.282 40.4844 178.512 41.0391 178.817 41.5156C179.121 41.9922 179.508 42.3633 179.977 42.6289C180.453 42.8945 181.008 43.0273 181.641 43.0273C182.446 43.0273 183.125 42.8711 183.68 42.5586C184.235 42.2461 184.676 41.832 185.004 41.3164C185.34 40.8008 185.582 40.2383 185.731 39.6289V35.9844C185.653 35.5859 185.52 35.1719 185.332 34.7422C185.145 34.3125 184.891 33.9141 184.571 33.5469C184.258 33.1719 183.864 32.8711 183.387 32.6445C182.91 32.4102 182.336 32.293 181.664 32.293C181.024 32.293 180.465 32.4297 179.989 32.7031C179.52 32.9688 179.129 33.3398 178.817 33.8164C178.512 34.293 178.282 34.8477 178.125 35.4805C177.977 36.1133 177.903 36.8008 177.903 37.543Z" fill="white"/>
<path d="M198.803 41.0703V31.3203H200.209V44H198.861L198.803 41.0703ZM199.061 38.7266L199.787 38.7031C199.787 39.5 199.693 40.2344 199.506 40.9062C199.318 41.5781 199.025 42.1641 198.627 42.6641C198.229 43.1641 197.713 43.5508 197.08 43.8242C196.447 44.0977 195.686 44.2344 194.795 44.2344C194.178 44.2344 193.611 44.1484 193.096 43.9766C192.588 43.7969 192.15 43.5156 191.783 43.1328C191.416 42.75 191.131 42.2539 190.928 41.6445C190.733 41.0352 190.635 40.2969 190.635 39.4297V31.3203H192.029V39.4531C192.029 40.1328 192.104 40.6992 192.252 41.1523C192.408 41.6055 192.619 41.9688 192.885 42.2422C193.158 42.5156 193.471 42.7109 193.822 42.8281C194.174 42.9453 194.553 43.0039 194.959 43.0039C195.99 43.0039 196.803 42.8047 197.397 42.4062C197.998 42.0078 198.424 41.4844 198.674 40.8359C198.932 40.1797 199.061 39.4766 199.061 38.7266Z" fill="white"/>
<path d="M211.828 41.7266V35.1875C211.828 34.5859 211.703 34.0664 211.453 33.6289C211.203 33.1914 210.836 32.8555 210.351 32.6211C209.867 32.3867 209.269 32.2695 208.558 32.2695C207.902 32.2695 207.316 32.3867 206.801 32.6211C206.293 32.8477 205.89 33.1562 205.594 33.5469C205.305 33.9297 205.16 34.3555 205.16 34.8242L203.754 34.8125C203.754 34.3359 203.871 33.875 204.105 33.4297C204.34 32.9844 204.672 32.5859 205.101 32.2344C205.531 31.8828 206.043 31.6055 206.637 31.4023C207.238 31.1914 207.898 31.0859 208.617 31.0859C209.523 31.0859 210.32 31.2383 211.008 31.543C211.703 31.8477 212.246 32.3047 212.637 32.9141C213.027 33.5234 213.223 34.2891 213.223 35.2109V41.3398C213.223 41.7773 213.254 42.2305 213.316 42.6992C213.387 43.168 213.484 43.5547 213.609 43.8594V44H212.121C212.027 43.7188 211.953 43.3672 211.898 42.9453C211.851 42.5156 211.828 42.1094 211.828 41.7266ZM212.156 36.6172L212.18 37.6953H209.426C208.707 37.6953 208.062 37.7617 207.492 37.8945C206.93 38.0195 206.453 38.207 206.062 38.457C205.672 38.6992 205.371 38.9922 205.16 39.3359C204.957 39.6797 204.855 40.0703 204.855 40.5078C204.855 40.9609 204.969 41.375 205.195 41.75C205.43 42.125 205.758 42.4258 206.18 42.6523C206.609 42.8711 207.117 42.9805 207.703 42.9805C208.484 42.9805 209.172 42.8359 209.765 42.5469C210.367 42.2578 210.863 41.8789 211.254 41.4102C211.644 40.9414 211.906 40.4297 212.039 39.875L212.648 40.6836C212.547 41.0742 212.359 41.4766 212.086 41.8906C211.82 42.2969 211.473 42.6797 211.043 43.0391C210.613 43.3906 210.105 43.6797 209.519 43.9062C208.941 44.125 208.285 44.2344 207.551 44.2344C206.723 44.2344 206 44.0781 205.383 43.7656C204.773 43.4531 204.297 43.0273 203.953 42.4883C203.617 41.9414 203.449 41.3242 203.449 40.6367C203.449 40.0117 203.582 39.4531 203.848 38.9609C204.113 38.4609 204.496 38.0391 204.996 37.6953C205.504 37.3438 206.113 37.0781 206.824 36.8984C207.543 36.7109 208.348 36.6172 209.238 36.6172H212.156Z" fill="white"/>
<path d="M218.783 26V44H217.388V26H218.783Z" fill="white"/>
<path d="M231.093 48.875V33.7578L231.187 31.3203H232.488V48.875H231.093ZM222.292 37.7891V37.543C222.292 36.5586 222.402 35.6719 222.62 34.8828C222.839 34.0859 223.16 33.4062 223.581 32.8438C224.011 32.2734 224.527 31.8398 225.128 31.543C225.738 31.2383 226.429 31.0859 227.203 31.0859C227.945 31.0859 228.605 31.207 229.183 31.4492C229.761 31.6914 230.257 32.0391 230.671 32.4922C231.093 32.9453 231.433 33.4844 231.691 34.1094C231.949 34.7344 232.136 35.4297 232.253 36.1953V39.3242C232.16 40.043 231.984 40.7031 231.726 41.3047C231.476 41.8984 231.14 42.418 230.718 42.8633C230.296 43.3008 229.788 43.6406 229.195 43.8828C228.609 44.1172 227.937 44.2344 227.179 44.2344C226.413 44.2344 225.726 44.0781 225.117 43.7656C224.515 43.4531 224.003 43.0117 223.581 42.4414C223.167 41.8633 222.847 41.1797 222.62 40.3906C222.402 39.6016 222.292 38.7344 222.292 37.7891ZM223.699 37.543V37.7891C223.699 38.5312 223.773 39.2188 223.921 39.8516C224.078 40.4844 224.308 41.0391 224.613 41.5156C224.917 41.9922 225.304 42.3633 225.773 42.6289C226.249 42.8945 226.804 43.0273 227.437 43.0273C228.242 43.0273 228.921 42.8711 229.476 42.5586C230.031 42.2461 230.472 41.832 230.8 41.3164C231.136 40.8008 231.378 40.2383 231.527 39.6289V35.9844C231.449 35.5859 231.316 35.1719 231.128 34.7422C230.941 34.3125 230.687 33.9141 230.367 33.5469C230.054 33.1719 229.66 32.8711 229.183 32.6445C228.706 32.4102 228.132 32.293 227.46 32.293C226.82 32.293 226.261 32.4297 225.785 32.7031C225.316 32.9688 224.925 33.3398 224.613 33.8164C224.308 34.293 224.078 34.8477 223.921 35.4805C223.773 36.1133 223.699 36.8008 223.699 37.543Z" fill="white"/>
<path d="M244.599 41.0703V31.3203H246.005V44H244.657L244.599 41.0703ZM244.857 38.7266L245.583 38.7031C245.583 39.5 245.489 40.2344 245.302 40.9062C245.114 41.5781 244.821 42.1641 244.423 42.6641C244.025 43.1641 243.509 43.5508 242.876 43.8242C242.243 44.0977 241.482 44.2344 240.591 44.2344C239.974 44.2344 239.407 44.1484 238.892 43.9766C238.384 43.7969 237.946 43.5156 237.579 43.1328C237.212 42.75 236.927 42.2539 236.724 41.6445C236.528 41.0352 236.431 40.2969 236.431 39.4297V31.3203H237.825V39.4531C237.825 40.1328 237.9 40.6992 238.048 41.1523C238.204 41.6055 238.415 41.9688 238.681 42.2422C238.954 42.5156 239.267 42.7109 239.618 42.8281C239.97 42.9453 240.349 43.0039 240.755 43.0039C241.786 43.0039 242.599 42.8047 243.193 42.4062C243.794 42.0078 244.22 41.4844 244.47 40.8359C244.728 40.1797 244.857 39.4766 244.857 38.7266Z" fill="white"/>
<path d="M254.811 44.2344C253.983 44.2344 253.222 44.082 252.526 43.7773C251.839 43.4727 251.237 43.043 250.722 42.4883C250.214 41.9336 249.819 41.2773 249.538 40.5195C249.265 39.7539 249.128 38.918 249.128 38.0117V37.5078C249.128 36.5312 249.272 35.6484 249.561 34.8594C249.85 34.0703 250.249 33.3945 250.757 32.832C251.265 32.2695 251.843 31.8398 252.491 31.543C253.147 31.2383 253.835 31.0859 254.554 31.0859C255.358 31.0859 256.073 31.2305 256.698 31.5195C257.323 31.8008 257.847 32.2031 258.268 32.7266C258.698 33.2422 259.022 33.8555 259.241 34.5664C259.46 35.2695 259.569 36.0469 259.569 36.8984V37.7539H249.972V36.5586H258.175V36.3945C258.159 35.6836 258.015 35.0195 257.741 34.4023C257.475 33.7773 257.077 33.2695 256.546 32.8789C256.015 32.4883 255.35 32.293 254.554 32.293C253.96 32.293 253.413 32.418 252.913 32.668C252.421 32.918 251.995 33.2773 251.636 33.7461C251.284 34.207 251.011 34.7578 250.815 35.3984C250.628 36.0312 250.534 36.7344 250.534 37.5078V38.0117C250.534 38.7148 250.636 39.3711 250.839 39.9805C251.05 40.582 251.347 41.1133 251.729 41.5742C252.12 42.0352 252.581 42.3945 253.112 42.6523C253.643 42.9102 254.229 43.0391 254.87 43.0391C255.62 43.0391 256.284 42.9023 256.862 42.6289C257.44 42.3477 257.96 41.9062 258.421 41.3047L259.3 41.9844C259.026 42.3906 258.682 42.7656 258.268 43.1094C257.862 43.4531 257.374 43.7266 256.804 43.9297C256.233 44.1328 255.569 44.2344 254.811 44.2344Z" fill="white"/>
<path d="M263.969 33.418V44H262.575V31.3203H263.934L263.969 33.418ZM268.458 31.2266L268.422 32.5156C268.266 32.4922 268.114 32.4727 267.965 32.457C267.817 32.4414 267.657 32.4336 267.485 32.4336C266.876 32.4336 266.34 32.5469 265.88 32.7734C265.426 32.9922 265.044 33.3008 264.731 33.6992C264.419 34.0898 264.18 34.5508 264.016 35.082C263.852 35.6055 263.758 36.168 263.735 36.7695L263.219 36.9688C263.219 36.1406 263.305 35.3711 263.477 34.6602C263.649 33.9492 263.911 33.3281 264.262 32.7969C264.622 32.2578 265.071 31.8398 265.61 31.543C266.157 31.2383 266.797 31.0859 267.532 31.0859C267.712 31.0859 267.887 31.1016 268.059 31.1328C268.239 31.1562 268.372 31.1875 268.458 31.2266Z" fill="white"/>
<path d="M285.121 41.0703V31.3203H286.528V44H285.18L285.121 41.0703ZM285.379 38.7266L286.106 38.7031C286.106 39.5 286.012 40.2344 285.824 40.9062C285.637 41.5781 285.344 42.1641 284.945 42.6641C284.547 43.1641 284.031 43.5508 283.399 43.8242C282.766 44.0977 282.004 44.2344 281.113 44.2344C280.496 44.2344 279.93 44.1484 279.414 43.9766C278.906 43.7969 278.469 43.5156 278.102 43.1328C277.735 42.75 277.449 42.2539 277.246 41.6445C277.051 41.0352 276.953 40.2969 276.953 39.4297V31.3203H278.348V39.4531C278.348 40.1328 278.422 40.6992 278.57 41.1523C278.727 41.6055 278.938 41.9688 279.203 42.2422C279.477 42.5156 279.789 42.7109 280.141 42.8281C280.492 42.9453 280.871 43.0039 281.278 43.0039C282.309 43.0039 283.121 42.8047 283.715 42.4062C284.317 42.0078 284.742 41.4844 284.992 40.8359C285.25 40.1797 285.379 39.4766 285.379 38.7266Z" fill="white"/>
<path d="M291.76 33.9453V44H290.353V31.3203H291.701L291.76 33.9453ZM291.502 36.875L290.822 36.5234C290.869 35.7734 291.01 35.0703 291.244 34.4141C291.486 33.7578 291.822 33.1797 292.252 32.6797C292.682 32.1797 293.197 31.7891 293.799 31.5078C294.4 31.2266 295.084 31.0859 295.85 31.0859C296.467 31.0859 297.025 31.1719 297.525 31.3438C298.033 31.5078 298.463 31.7695 298.814 32.1289C299.174 32.4805 299.451 32.9414 299.646 33.5117C299.842 34.082 299.939 34.7656 299.939 35.5625V44H298.545V35.6094C298.545 34.7656 298.412 34.1055 298.146 33.6289C297.889 33.1523 297.525 32.8125 297.057 32.6094C296.596 32.4062 296.06 32.3047 295.451 32.3047C294.732 32.3047 294.123 32.4531 293.623 32.75C293.131 33.0391 292.728 33.418 292.416 33.8867C292.111 34.3477 291.885 34.8438 291.736 35.375C291.588 35.8984 291.51 36.3984 291.502 36.875ZM299.928 35.7734L298.99 35.7969C299.029 35.1797 299.17 34.5898 299.412 34.0273C299.662 33.4648 300.002 32.9648 300.432 32.5273C300.861 32.082 301.373 31.7305 301.967 31.4727C302.568 31.2148 303.244 31.0859 303.994 31.0859C304.65 31.0859 305.236 31.1758 305.752 31.3555C306.268 31.5273 306.701 31.8047 307.053 32.1875C307.412 32.5625 307.685 33.043 307.873 33.6289C308.06 34.2148 308.154 34.918 308.154 35.7383V44H306.748V35.7266C306.748 34.8281 306.615 34.1328 306.35 33.6406C306.092 33.1406 305.732 32.793 305.271 32.5977C304.81 32.4023 304.271 32.3047 303.654 32.3047C303.045 32.3125 302.51 32.4258 302.049 32.6445C301.588 32.8555 301.201 33.1367 300.889 33.4883C300.584 33.832 300.35 34.2031 300.185 34.6016C300.029 35 299.943 35.3906 299.928 35.7734Z" fill="white"/>
<path d="M319.668 41.7266V35.1875C319.668 34.5859 319.543 34.0664 319.293 33.6289C319.043 33.1914 318.675 32.8555 318.191 32.6211C317.707 32.3867 317.109 32.2695 316.398 32.2695C315.742 32.2695 315.156 32.3867 314.64 32.6211C314.133 32.8477 313.73 33.1562 313.433 33.5469C313.144 33.9297 313 34.3555 313 34.8242L311.593 34.8125C311.593 34.3359 311.711 33.875 311.945 33.4297C312.179 32.9844 312.511 32.5859 312.941 32.2344C313.371 31.8828 313.883 31.6055 314.476 31.4023C315.078 31.1914 315.738 31.0859 316.457 31.0859C317.363 31.0859 318.16 31.2383 318.847 31.543C319.543 31.8477 320.086 32.3047 320.476 32.9141C320.867 33.5234 321.062 34.2891 321.062 35.2109V41.3398C321.062 41.7773 321.093 42.2305 321.156 42.6992C321.226 43.168 321.324 43.5547 321.449 43.8594V44H319.961C319.867 43.7188 319.793 43.3672 319.738 42.9453C319.691 42.5156 319.668 42.1094 319.668 41.7266ZM319.996 36.6172L320.019 37.6953H317.265C316.547 37.6953 315.902 37.7617 315.332 37.8945C314.769 38.0195 314.293 38.207 313.902 38.457C313.511 38.6992 313.211 38.9922 313 39.3359C312.797 39.6797 312.695 40.0703 312.695 40.5078C312.695 40.9609 312.808 41.375 313.035 41.75C313.269 42.125 313.597 42.4258 314.019 42.6523C314.449 42.8711 314.957 42.9805 315.543 42.9805C316.324 42.9805 317.011 42.8359 317.605 42.5469C318.207 42.2578 318.703 41.8789 319.093 41.4102C319.484 40.9414 319.746 40.4297 319.879 39.875L320.488 40.6836C320.386 41.0742 320.199 41.4766 319.925 41.8906C319.66 42.2969 319.312 42.6797 318.883 43.0391C318.453 43.3906 317.945 43.6797 317.359 43.9062C316.781 44.125 316.125 44.2344 315.39 44.2344C314.562 44.2344 313.84 44.0781 313.222 43.7656C312.613 43.4531 312.136 43.0273 311.793 42.4883C311.457 41.9414 311.289 41.3242 311.289 40.6367C311.289 40.0117 311.422 39.4531 311.687 38.9609C311.953 38.4609 312.336 38.0391 312.836 37.6953C313.343 37.3438 313.953 37.0781 314.664 36.8984C315.383 36.7109 316.187 36.6172 317.078 36.6172H319.996Z" fill="white"/>
<path d="M339.402 41.5391V26H340.808V44H339.495L339.402 41.5391ZM330.601 37.7891V37.543C330.601 36.5586 330.714 35.6719 330.941 34.8828C331.167 34.0859 331.491 33.4062 331.913 32.8438C332.343 32.2734 332.859 31.8398 333.46 31.543C334.062 31.2383 334.741 31.0859 335.499 31.0859C336.241 31.0859 336.898 31.207 337.468 31.4492C338.038 31.6914 338.527 32.0391 338.933 32.4922C339.347 32.9453 339.679 33.4844 339.929 34.1094C340.187 34.7344 340.374 35.4297 340.491 36.1953V39.3242C340.398 40.043 340.226 40.7031 339.976 41.3047C339.726 41.8984 339.394 42.418 338.98 42.8633C338.566 43.3008 338.066 43.6406 337.48 43.8828C336.902 44.1172 336.234 44.2344 335.476 44.2344C334.726 44.2344 334.05 44.0781 333.448 43.7656C332.847 43.4531 332.335 43.0117 331.913 42.4414C331.491 41.8633 331.167 41.1797 330.941 40.3906C330.714 39.6016 330.601 38.7344 330.601 37.7891ZM332.007 37.543V37.7891C332.007 38.5312 332.081 39.2188 332.23 39.8516C332.378 40.4844 332.605 41.0352 332.909 41.5039C333.214 41.9727 333.601 42.3398 334.07 42.6055C334.538 42.8711 335.093 43.0039 335.734 43.0039C336.538 43.0039 337.214 42.8516 337.761 42.5469C338.308 42.2344 338.745 41.8242 339.073 41.3164C339.402 40.8008 339.64 40.2383 339.788 39.6289V35.9844C339.695 35.5703 339.558 35.1484 339.378 34.7188C339.198 34.2891 338.952 33.8945 338.64 33.5352C338.335 33.168 337.945 32.875 337.468 32.6562C336.999 32.4297 336.429 32.3164 335.757 32.3164C335.109 32.3164 334.55 32.4492 334.081 32.7148C333.613 32.9805 333.222 33.3516 332.909 33.8281C332.605 34.2969 332.378 34.8477 332.23 35.4805C332.081 36.1133 332.007 36.8008 332.007 37.543Z" fill="white"/>
<path d="M349.638 44.2344C348.81 44.2344 348.048 44.082 347.353 43.7773C346.665 43.4727 346.063 43.043 345.548 42.4883C345.04 41.9336 344.645 41.2773 344.364 40.5195C344.091 39.7539 343.954 38.918 343.954 38.0117V37.5078C343.954 36.5312 344.099 35.6484 344.388 34.8594C344.677 34.0703 345.075 33.3945 345.583 32.832C346.091 32.2695 346.669 31.8398 347.317 31.543C347.974 31.2383 348.661 31.0859 349.38 31.0859C350.185 31.0859 350.899 31.2305 351.524 31.5195C352.149 31.8008 352.673 32.2031 353.095 32.7266C353.524 33.2422 353.849 33.8555 354.067 34.5664C354.286 35.2695 354.395 36.0469 354.395 36.8984V37.7539H344.798V36.5586H353.001V36.3945C352.985 35.6836 352.841 35.0195 352.567 34.4023C352.302 33.7773 351.903 33.2695 351.372 32.8789C350.841 32.4883 350.177 32.293 349.38 32.293C348.786 32.293 348.239 32.418 347.739 32.668C347.247 32.918 346.821 33.2773 346.462 33.7461C346.11 34.207 345.837 34.7578 345.642 35.3984C345.454 36.0312 345.36 36.7344 345.36 37.5078V38.0117C345.36 38.7148 345.462 39.3711 345.665 39.9805C345.876 40.582 346.173 41.1133 346.556 41.5742C346.946 42.0352 347.407 42.3945 347.938 42.6523C348.47 42.9102 349.056 43.0391 349.696 43.0391C350.446 43.0391 351.11 42.9023 351.688 42.6289C352.267 42.3477 352.786 41.9062 353.247 41.3047L354.126 41.9844C353.853 42.3906 353.509 42.7656 353.095 43.1094C352.688 43.4531 352.2 43.7266 351.63 43.9297C351.06 44.1328 350.395 44.2344 349.638 44.2344Z" fill="white"/>
<path d="M364.995 40.7656C364.995 40.4219 364.909 40.082 364.737 39.7461C364.565 39.4102 364.233 39.1016 363.741 38.8203C363.257 38.5391 362.542 38.3008 361.596 38.1055C360.893 37.9492 360.264 37.7734 359.71 37.5781C359.163 37.3828 358.702 37.1484 358.327 36.875C357.952 36.6016 357.667 36.2734 357.471 35.8906C357.276 35.5078 357.178 35.0547 357.178 34.5312C357.178 34.0625 357.28 33.6211 357.483 33.207C357.694 32.7852 357.991 32.418 358.374 32.1055C358.764 31.7852 359.233 31.5352 359.78 31.3555C360.335 31.1758 360.956 31.0859 361.643 31.0859C362.62 31.0859 363.456 31.2539 364.151 31.5898C364.854 31.918 365.389 32.3672 365.757 32.9375C366.132 33.5078 366.319 34.1523 366.319 34.8711H364.925C364.925 34.4336 364.796 34.0195 364.538 33.6289C364.288 33.2383 363.917 32.918 363.425 32.668C362.94 32.418 362.346 32.293 361.643 32.293C360.917 32.293 360.327 32.4023 359.874 32.6211C359.421 32.8398 359.089 33.1172 358.878 33.4531C358.675 33.7891 358.573 34.1367 358.573 34.4961C358.573 34.7773 358.616 35.0352 358.702 35.2695C358.796 35.4961 358.96 35.707 359.194 35.9023C359.436 36.0977 359.78 36.2812 360.225 36.4531C360.671 36.625 361.249 36.793 361.96 36.957C362.983 37.1836 363.819 37.4609 364.467 37.7891C365.124 38.1094 365.608 38.5078 365.921 38.9844C366.233 39.4531 366.389 40.0234 366.389 40.6953C366.389 41.2188 366.28 41.6992 366.061 42.1367C365.842 42.5664 365.526 42.9375 365.112 43.25C364.706 43.5625 364.214 43.8047 363.635 43.9766C363.065 44.1484 362.425 44.2344 361.714 44.2344C360.643 44.2344 359.737 44.0586 358.995 43.707C358.26 43.3477 357.702 42.8789 357.319 42.3008C356.944 41.7148 356.757 41.0938 356.757 40.4375H358.151C358.198 41.0938 358.405 41.6133 358.772 41.9961C359.139 42.3711 359.589 42.6367 360.12 42.793C360.659 42.9492 361.19 43.0273 361.714 43.0273C362.432 43.0273 363.034 42.9219 363.518 42.7109C364.003 42.5 364.37 42.2227 364.62 41.8789C364.87 41.5352 364.995 41.1641 364.995 40.7656Z" fill="white"/>
<path d="M377.399 40.7656C377.399 40.4219 377.313 40.082 377.141 39.7461C376.969 39.4102 376.637 39.1016 376.145 38.8203C375.661 38.5391 374.946 38.3008 374 38.1055C373.297 37.9492 372.668 37.7734 372.114 37.5781C371.567 37.3828 371.106 37.1484 370.731 36.875C370.356 36.6016 370.071 36.2734 369.875 35.8906C369.68 35.5078 369.583 35.0547 369.583 34.5312C369.583 34.0625 369.684 33.6211 369.887 33.207C370.098 32.7852 370.395 32.418 370.778 32.1055C371.168 31.7852 371.637 31.5352 372.184 31.3555C372.739 31.1758 373.36 31.0859 374.047 31.0859C375.024 31.0859 375.86 31.2539 376.555 31.5898C377.258 31.918 377.793 32.3672 378.161 32.9375C378.536 33.5078 378.723 34.1523 378.723 34.8711H377.329C377.329 34.4336 377.2 34.0195 376.942 33.6289C376.692 33.2383 376.321 32.918 375.829 32.668C375.344 32.418 374.75 32.293 374.047 32.293C373.321 32.293 372.731 32.4023 372.278 32.6211C371.825 32.8398 371.493 33.1172 371.282 33.4531C371.079 33.7891 370.977 34.1367 370.977 34.4961C370.977 34.7773 371.02 35.0352 371.106 35.2695C371.2 35.4961 371.364 35.707 371.598 35.9023C371.84 36.0977 372.184 36.2812 372.629 36.4531C373.075 36.625 373.653 36.793 374.364 36.957C375.387 37.1836 376.223 37.4609 376.872 37.7891C377.528 38.1094 378.012 38.5078 378.325 38.9844C378.637 39.4531 378.793 40.0234 378.793 40.6953C378.793 41.2188 378.684 41.6992 378.465 42.1367C378.247 42.5664 377.93 42.9375 377.516 43.25C377.11 43.5625 376.618 43.8047 376.04 43.9766C375.469 44.1484 374.829 44.2344 374.118 44.2344C373.047 44.2344 372.141 44.0586 371.399 43.707C370.665 43.3477 370.106 42.8789 369.723 42.3008C369.348 41.7148 369.161 41.0938 369.161 40.4375H370.555C370.602 41.0938 370.809 41.6133 371.176 41.9961C371.543 42.3711 371.993 42.6367 372.524 42.793C373.063 42.9492 373.594 43.0273 374.118 43.0273C374.836 43.0273 375.438 42.9219 375.922 42.7109C376.407 42.5 376.774 42.2227 377.024 41.8789C377.274 41.5352 377.399 41.1641 377.399 40.7656Z" fill="white"/>
<path d="M389.92 41.7266V35.1875C389.92 34.5859 389.795 34.0664 389.545 33.6289C389.295 33.1914 388.928 32.8555 388.444 32.6211C387.959 32.3867 387.362 32.2695 386.651 32.2695C385.994 32.2695 385.408 32.3867 384.893 32.6211C384.385 32.8477 383.983 33.1562 383.686 33.5469C383.397 33.9297 383.252 34.3555 383.252 34.8242L381.846 34.8125C381.846 34.3359 381.963 33.875 382.198 33.4297C382.432 32.9844 382.764 32.5859 383.194 32.2344C383.623 31.8828 384.135 31.6055 384.729 31.4023C385.33 31.1914 385.99 31.0859 386.709 31.0859C387.615 31.0859 388.412 31.2383 389.1 31.543C389.795 31.8477 390.338 32.3047 390.729 32.9141C391.119 33.5234 391.315 34.2891 391.315 35.2109V41.3398C391.315 41.7773 391.346 42.2305 391.408 42.6992C391.479 43.168 391.576 43.5547 391.701 43.8594V44H390.213C390.119 43.7188 390.045 43.3672 389.99 42.9453C389.944 42.5156 389.92 42.1094 389.92 41.7266ZM390.248 36.6172L390.272 37.6953H387.518C386.799 37.6953 386.155 37.7617 385.584 37.8945C385.022 38.0195 384.545 38.207 384.155 38.457C383.764 38.6992 383.463 38.9922 383.252 39.3359C383.049 39.6797 382.948 40.0703 382.948 40.5078C382.948 40.9609 383.061 41.375 383.287 41.75C383.522 42.125 383.85 42.4258 384.272 42.6523C384.701 42.8711 385.209 42.9805 385.795 42.9805C386.576 42.9805 387.264 42.8359 387.858 42.5469C388.459 42.2578 388.955 41.8789 389.346 41.4102C389.737 40.9414 389.998 40.4297 390.131 39.875L390.74 40.6836C390.639 41.0742 390.451 41.4766 390.178 41.8906C389.912 42.2969 389.565 42.6797 389.135 43.0391C388.705 43.3906 388.198 43.6797 387.612 43.9062C387.033 44.125 386.377 44.2344 385.643 44.2344C384.815 44.2344 384.092 44.0781 383.475 43.7656C382.865 43.4531 382.389 43.0273 382.045 42.4883C381.709 41.9414 381.541 41.3242 381.541 40.6367C381.541 40.0117 381.674 39.4531 381.94 38.9609C382.205 38.4609 382.588 38.0391 383.088 37.6953C383.596 37.3438 384.205 37.0781 384.916 36.8984C385.635 36.7109 386.44 36.6172 387.33 36.6172H390.248Z" fill="white"/>
<path d="M402.91 40.7656C402.91 40.4219 402.824 40.082 402.652 39.7461C402.48 39.4102 402.148 39.1016 401.656 38.8203C401.172 38.5391 400.457 38.3008 399.512 38.1055C398.809 37.9492 398.18 37.7734 397.625 37.5781C397.078 37.3828 396.617 37.1484 396.242 36.875C395.867 36.6016 395.582 36.2734 395.387 35.8906C395.191 35.5078 395.094 35.0547 395.094 34.5312C395.094 34.0625 395.195 33.6211 395.398 33.207C395.609 32.7852 395.906 32.418 396.289 32.1055C396.68 31.7852 397.148 31.5352 397.695 31.3555C398.25 31.1758 398.871 31.0859 399.559 31.0859C400.535 31.0859 401.371 31.2539 402.066 31.5898C402.77 31.918 403.305 32.3672 403.672 32.9375C404.047 33.5078 404.234 34.1523 404.234 34.8711H402.84C402.84 34.4336 402.711 34.0195 402.453 33.6289C402.203 33.2383 401.832 32.918 401.34 32.668C400.855 32.418 400.262 32.293 399.559 32.293C398.832 32.293 398.242 32.4023 397.789 32.6211C397.336 32.8398 397.004 33.1172 396.793 33.4531C396.59 33.7891 396.488 34.1367 396.488 34.4961C396.488 34.7773 396.531 35.0352 396.617 35.2695C396.711 35.4961 396.875 35.707 397.109 35.9023C397.352 36.0977 397.695 36.2812 398.141 36.4531C398.586 36.625 399.164 36.793 399.875 36.957C400.898 37.1836 401.734 37.4609 402.383 37.7891C403.039 38.1094 403.523 38.5078 403.836 38.9844C404.148 39.4531 404.305 40.0234 404.305 40.6953C404.305 41.2188 404.195 41.6992 403.977 42.1367C403.758 42.5664 403.441 42.9375 403.027 43.25C402.621 43.5625 402.129 43.8047 401.551 43.9766C400.98 44.1484 400.34 44.2344 399.629 44.2344C398.559 44.2344 397.652 44.0586 396.91 43.707C396.176 43.3477 395.617 42.8789 395.234 42.3008C394.859 41.7148 394.672 41.0938 394.672 40.4375H396.066C396.113 41.0938 396.32 41.6133 396.688 41.9961C397.055 42.3711 397.504 42.6367 398.035 42.793C398.574 42.9492 399.105 43.0273 399.629 43.0273C400.348 43.0273 400.949 42.9219 401.434 42.7109C401.918 42.5 402.285 42.2227 402.535 41.8789C402.785 41.5352 402.91 41.1641 402.91 40.7656Z" fill="white"/>
<path d="M415.203 33.7578V48.875H413.796V31.3203H415.109L415.203 33.7578ZM424.015 37.543V37.7891C424.015 38.7344 423.906 39.6016 423.687 40.3906C423.468 41.1797 423.152 41.8633 422.738 42.4414C422.332 43.0117 421.828 43.4531 421.226 43.7656C420.625 44.0781 419.941 44.2344 419.175 44.2344C418.417 44.2344 417.742 44.1172 417.148 43.8828C416.554 43.6484 416.042 43.3164 415.613 42.8867C415.191 42.4492 414.851 41.9414 414.593 41.3633C414.343 40.7773 414.167 40.1367 414.066 39.4414V36.1953C414.183 35.4297 414.375 34.7344 414.64 34.1094C414.906 33.4844 415.246 32.9453 415.66 32.4922C416.082 32.0391 416.582 31.6914 417.16 31.4492C417.738 31.207 418.398 31.0859 419.14 31.0859C419.914 31.0859 420.601 31.2383 421.203 31.543C421.812 31.8398 422.324 32.2734 422.738 32.8438C423.16 33.4062 423.476 34.0859 423.687 34.8828C423.906 35.6719 424.015 36.5586 424.015 37.543ZM422.609 37.7891V37.543C422.609 36.8008 422.531 36.1133 422.375 35.4805C422.226 34.8477 421.996 34.2969 421.683 33.8281C421.378 33.3516 420.988 32.9805 420.511 32.7148C420.042 32.4492 419.484 32.3164 418.835 32.3164C418.164 32.3164 417.589 32.4297 417.113 32.6562C416.644 32.875 416.253 33.168 415.941 33.5352C415.628 33.8945 415.382 34.2891 415.203 34.7188C415.023 35.1484 414.89 35.5703 414.804 35.9844V39.7227C414.953 40.3164 415.191 40.8672 415.519 41.375C415.847 41.875 416.285 42.2773 416.832 42.582C417.386 42.8789 418.062 43.0273 418.859 43.0273C419.5 43.0273 420.054 42.8945 420.523 42.6289C420.992 42.3633 421.378 41.9922 421.683 41.5156C421.996 41.0391 422.226 40.4844 422.375 39.8516C422.531 39.2188 422.609 38.5312 422.609 37.7891Z" fill="white"/>
<path d="M435.493 41.0703V31.3203H436.9V44H435.552L435.493 41.0703ZM435.751 38.7266L436.478 38.7031C436.478 39.5 436.384 40.2344 436.197 40.9062C436.009 41.5781 435.716 42.1641 435.318 42.6641C434.919 43.1641 434.404 43.5508 433.771 43.8242C433.138 44.0977 432.376 44.2344 431.486 44.2344C430.868 44.2344 430.302 44.1484 429.786 43.9766C429.279 43.7969 428.841 43.5156 428.474 43.1328C428.107 42.75 427.822 42.2539 427.618 41.6445C427.423 41.0352 427.325 40.2969 427.325 39.4297V31.3203H428.72V39.4531C428.72 40.1328 428.794 40.6992 428.943 41.1523C429.099 41.6055 429.31 41.9688 429.575 42.2422C429.849 42.5156 430.161 42.7109 430.513 42.8281C430.865 42.9453 431.243 43.0039 431.65 43.0039C432.681 43.0039 433.493 42.8047 434.087 42.4062C434.689 42.0078 435.115 41.4844 435.365 40.8359C435.622 40.1797 435.751 39.4766 435.751 38.7266Z" fill="white"/>
<path d="M440.784 26H442.19V41.5391L442.097 44H440.784V26ZM451.015 37.543V37.7891C451.015 38.7344 450.905 39.6016 450.687 40.3906C450.468 41.1797 450.151 41.8633 449.737 42.4414C449.323 43.0117 448.815 43.4531 448.214 43.7656C447.62 44.0781 446.937 44.2344 446.163 44.2344C445.405 44.2344 444.733 44.1172 444.148 43.8828C443.562 43.6406 443.062 43.3008 442.648 42.8633C442.233 42.418 441.901 41.8984 441.651 41.3047C441.401 40.7031 441.226 40.043 441.124 39.3242V36.1953C441.241 35.4297 441.429 34.7344 441.687 34.1094C441.944 33.4844 442.276 32.9453 442.683 32.4922C443.097 32.0391 443.589 31.6914 444.159 31.4492C444.737 31.207 445.398 31.0859 446.14 31.0859C446.913 31.0859 447.601 31.2383 448.202 31.543C448.812 31.8398 449.323 32.2734 449.737 32.8438C450.151 33.4062 450.468 34.0859 450.687 34.8828C450.905 35.6719 451.015 36.5586 451.015 37.543ZM449.597 37.7891V37.543C449.597 36.8008 449.526 36.1133 449.386 35.4805C449.245 34.8477 449.023 34.2969 448.718 33.8281C448.421 33.3516 448.038 32.9805 447.569 32.7148C447.101 32.4492 446.538 32.3164 445.882 32.3164C445.21 32.3164 444.636 32.4297 444.159 32.6562C443.69 32.875 443.3 33.168 442.987 33.5352C442.683 33.8945 442.44 34.2891 442.261 34.7188C442.081 35.1484 441.948 35.5703 441.862 35.9844V39.6289C441.995 40.2148 442.226 40.7656 442.554 41.2812C442.882 41.7969 443.323 42.2148 443.878 42.5352C444.433 42.8477 445.108 43.0039 445.905 43.0039C446.546 43.0039 447.097 42.8711 447.558 42.6055C448.026 42.3398 448.409 41.9727 448.706 41.5039C449.011 41.0352 449.233 40.4844 449.374 39.8516C449.523 39.2188 449.597 38.5312 449.597 37.7891Z" fill="white"/>
<path d="M455.919 26V44H454.524V26H455.919Z" fill="white"/>
<path d="M461.549 31.3203V44H460.155V31.3203H461.549ZM459.909 27.6523C459.909 27.3867 459.991 27.1641 460.155 26.9844C460.327 26.7969 460.561 26.7031 460.858 26.7031C461.155 26.7031 461.389 26.7969 461.561 26.9844C461.741 27.1641 461.831 27.3867 461.831 27.6523C461.831 27.9102 461.741 28.1328 461.561 28.3203C461.389 28.5 461.155 28.5898 460.858 28.5898C460.561 28.5898 460.327 28.5 460.155 28.3203C459.991 28.1328 459.909 27.9102 459.909 27.6523Z" fill="white"/>
<path d="M470.297 43.0273C470.891 43.0273 471.446 42.918 471.961 42.6992C472.485 42.4727 472.914 42.1406 473.25 41.7031C473.594 41.2578 473.789 40.7148 473.836 40.0742H475.172C475.133 40.8789 474.887 41.5977 474.434 42.2305C473.989 42.8555 473.403 43.3477 472.676 43.707C471.957 44.0586 471.164 44.2344 470.297 44.2344C469.414 44.2344 468.633 44.0742 467.953 43.7539C467.282 43.4336 466.719 42.9883 466.266 42.418C465.813 41.8398 465.469 41.168 465.235 40.4023C465.008 39.6289 464.895 38.7969 464.895 37.9062V37.4141C464.895 36.5234 465.008 35.6953 465.235 34.9297C465.469 34.1562 465.813 33.4844 466.266 32.9141C466.719 32.3359 467.282 31.8867 467.953 31.5664C468.625 31.2461 469.403 31.0859 470.285 31.0859C471.192 31.0859 472.004 31.2695 472.723 31.6367C473.45 32.0039 474.028 32.5234 474.457 33.1953C474.895 33.8672 475.133 34.6641 475.172 35.5859H473.836C473.797 34.9062 473.617 34.3203 473.297 33.8281C472.977 33.3359 472.555 32.957 472.032 32.6914C471.508 32.4258 470.926 32.293 470.285 32.293C469.567 32.293 468.953 32.4336 468.446 32.7148C467.938 32.9883 467.524 33.3672 467.203 33.8516C466.891 34.3281 466.66 34.875 466.512 35.4922C466.364 36.1016 466.289 36.7422 466.289 37.4141V37.9062C466.289 38.5859 466.36 39.2344 466.5 39.8516C466.649 40.4609 466.879 41.0039 467.192 41.4805C467.512 41.957 467.926 42.3359 468.434 42.6172C468.95 42.8906 469.571 43.0273 470.297 43.0273Z" fill="white"/>
<path d="M485.947 41.7266V35.1875C485.947 34.5859 485.822 34.0664 485.572 33.6289C485.322 33.1914 484.955 32.8555 484.471 32.6211C483.986 32.3867 483.389 32.2695 482.678 32.2695C482.022 32.2695 481.436 32.3867 480.92 32.6211C480.412 32.8477 480.01 33.1562 479.713 33.5469C479.424 33.9297 479.279 34.3555 479.279 34.8242L477.873 34.8125C477.873 34.3359 477.99 33.875 478.225 33.4297C478.459 32.9844 478.791 32.5859 479.221 32.2344C479.651 31.8828 480.162 31.6055 480.756 31.4023C481.358 31.1914 482.018 31.0859 482.736 31.0859C483.643 31.0859 484.44 31.2383 485.127 31.543C485.822 31.8477 486.365 32.3047 486.756 32.9141C487.147 33.5234 487.342 34.2891 487.342 35.2109V41.3398C487.342 41.7773 487.373 42.2305 487.436 42.6992C487.506 43.168 487.604 43.5547 487.729 43.8594V44H486.24C486.147 43.7188 486.072 43.3672 486.018 42.9453C485.971 42.5156 485.947 42.1094 485.947 41.7266ZM486.276 36.6172L486.299 37.6953H483.545C482.826 37.6953 482.182 37.7617 481.611 37.8945C481.049 38.0195 480.572 38.207 480.182 38.457C479.791 38.6992 479.49 38.9922 479.279 39.3359C479.076 39.6797 478.975 40.0703 478.975 40.5078C478.975 40.9609 479.088 41.375 479.315 41.75C479.549 42.125 479.877 42.4258 480.299 42.6523C480.729 42.8711 481.236 42.9805 481.822 42.9805C482.604 42.9805 483.291 42.8359 483.885 42.5469C484.486 42.2578 484.983 41.8789 485.373 41.4102C485.764 40.9414 486.026 40.4297 486.158 39.875L486.768 40.6836C486.666 41.0742 486.479 41.4766 486.205 41.8906C485.94 42.2969 485.592 42.6797 485.162 43.0391C484.733 43.3906 484.225 43.6797 483.639 43.9062C483.061 44.125 482.404 44.2344 481.67 44.2344C480.842 44.2344 480.119 44.0781 479.502 43.7656C478.893 43.4531 478.416 43.0273 478.072 42.4883C477.736 41.9414 477.568 41.3242 477.568 40.6367C477.568 40.0117 477.701 39.4531 477.967 38.9609C478.233 38.4609 478.615 38.0391 479.115 37.6953C479.623 37.3438 480.233 37.0781 480.943 36.8984C481.662 36.7109 482.467 36.6172 483.358 36.6172H486.276Z" fill="white"/>
<path d="M496.019 43.0273C496.613 43.0273 497.168 42.918 497.683 42.6992C498.207 42.4727 498.637 42.1406 498.973 41.7031C499.316 41.2578 499.512 40.7148 499.558 40.0742H500.894C500.855 40.8789 500.609 41.5977 500.156 42.2305C499.711 42.8555 499.125 43.3477 498.398 43.707C497.68 44.0586 496.887 44.2344 496.019 44.2344C495.137 44.2344 494.355 44.0742 493.676 43.7539C493.004 43.4336 492.441 42.9883 491.988 42.418C491.535 41.8398 491.191 41.168 490.957 40.4023C490.73 39.6289 490.617 38.7969 490.617 37.9062V37.4141C490.617 36.5234 490.73 35.6953 490.957 34.9297C491.191 34.1562 491.535 33.4844 491.988 32.9141C492.441 32.3359 493.004 31.8867 493.676 31.5664C494.348 31.2461 495.125 31.0859 496.008 31.0859C496.914 31.0859 497.726 31.2695 498.445 31.6367C499.172 32.0039 499.75 32.5234 500.18 33.1953C500.617 33.8672 500.855 34.6641 500.894 35.5859H499.558C499.519 34.9062 499.34 34.3203 499.019 33.8281C498.699 33.3359 498.277 32.957 497.754 32.6914C497.23 32.4258 496.648 32.293 496.008 32.293C495.289 32.293 494.676 32.4336 494.168 32.7148C493.66 32.9883 493.246 33.3672 492.926 33.8516C492.613 34.3281 492.383 34.875 492.234 35.4922C492.086 36.1016 492.012 36.7422 492.012 37.4141V37.9062C492.012 38.5859 492.082 39.2344 492.223 39.8516C492.371 40.4609 492.601 41.0039 492.914 41.4805C493.234 41.957 493.648 42.3359 494.156 42.6172C494.672 42.8906 495.293 43.0273 496.019 43.0273ZM495.328 44.1172H496.418L496.277 44.8789C496.769 44.9414 497.215 45.1172 497.613 45.4062C498.012 45.6953 498.211 46.1875 498.211 46.8828C498.211 47.2344 498.133 47.5508 497.976 47.832C497.828 48.1211 497.605 48.3672 497.308 48.5703C497.019 48.7812 496.66 48.9414 496.23 49.0508C495.808 49.1602 495.32 49.2148 494.766 49.2148L494.683 48.3008C495.074 48.3008 495.449 48.2539 495.808 48.1602C496.176 48.0664 496.473 47.9141 496.699 47.7031C496.933 47.4922 497.051 47.2227 497.051 46.8945C497.051 46.5977 496.976 46.3633 496.828 46.1914C496.68 46.0195 496.453 45.8906 496.148 45.8047C495.844 45.7188 495.461 45.6562 495 45.6172L495.328 44.1172Z" fill="white"/>
<path d="M503.185 37.8594V37.4727C503.185 36.5508 503.318 35.6992 503.584 34.918C503.849 34.1367 504.228 33.4609 504.72 32.8906C505.22 32.3203 505.818 31.8789 506.513 31.5664C507.209 31.2461 507.982 31.0859 508.834 31.0859C509.693 31.0859 510.47 31.2461 511.166 31.5664C511.861 31.8789 512.459 32.3203 512.959 32.8906C513.459 33.4609 513.841 34.1367 514.107 34.918C514.373 35.6992 514.505 36.5508 514.505 37.4727V37.8594C514.505 38.7812 514.373 39.6328 514.107 40.4141C513.841 41.1875 513.459 41.8594 512.959 42.4297C512.466 43 511.873 43.4453 511.177 43.7656C510.482 44.0781 509.709 44.2344 508.857 44.2344C507.998 44.2344 507.22 44.0781 506.525 43.7656C505.83 43.4453 505.232 43 504.732 42.4297C504.232 41.8594 503.849 41.1875 503.584 40.4141C503.318 39.6328 503.185 38.7812 503.185 37.8594ZM504.58 37.4727V37.8594C504.58 38.5547 504.673 39.2148 504.861 39.8398C505.048 40.457 505.322 41.0078 505.681 41.4922C506.041 41.9688 506.486 42.3438 507.017 42.6172C507.548 42.8906 508.162 43.0273 508.857 43.0273C509.545 43.0273 510.15 42.8906 510.673 42.6172C511.205 42.3438 511.65 41.9688 512.009 41.4922C512.369 41.0078 512.638 40.457 512.818 39.8398C513.005 39.2148 513.099 38.5547 513.099 37.8594V37.4727C513.099 36.7852 513.005 36.1328 512.818 35.5156C512.638 34.8984 512.365 34.3477 511.998 33.8633C511.638 33.3789 511.193 32.9961 510.662 32.7148C510.13 32.4336 509.521 32.293 508.834 32.293C508.146 32.293 507.537 32.4336 507.005 32.7148C506.482 32.9961 506.037 33.3789 505.67 33.8633C505.31 34.3477 505.037 34.8984 504.849 35.5156C504.67 36.1328 504.58 36.7852 504.58 37.4727ZM511.763 26.4219L512.818 26.4922C512.818 26.9922 512.713 27.4297 512.502 27.8047C512.298 28.1797 512.025 28.4727 511.681 28.6836C511.338 28.8945 510.951 29 510.521 29C510.107 29 509.767 28.9336 509.502 28.8008C509.236 28.668 508.998 28.5195 508.787 28.3555C508.576 28.1836 508.353 28.0352 508.119 27.9102C507.884 27.7773 507.599 27.7109 507.263 27.7109C506.904 27.7109 506.599 27.8359 506.349 28.0859C506.099 28.3281 505.974 28.6641 505.974 29.0938L504.92 29.0586C504.92 28.5586 505.021 28.125 505.224 27.7578C505.427 27.3828 505.701 27.0898 506.045 26.8789C506.396 26.668 506.787 26.5625 507.216 26.5625C507.584 26.5625 507.9 26.6289 508.166 26.7617C508.439 26.8867 508.689 27.0352 508.916 27.207C509.142 27.3789 509.377 27.5312 509.619 27.6641C509.861 27.7891 510.142 27.8516 510.463 27.8516C510.822 27.8516 511.127 27.7227 511.377 27.4648C511.634 27.1992 511.763 26.8516 511.763 26.4219Z" fill="white"/>
<path d="M522.55 44.2344C521.722 44.2344 520.96 44.082 520.265 43.7773C519.578 43.4727 518.976 43.043 518.46 42.4883C517.953 41.9336 517.558 41.2773 517.277 40.5195C517.003 39.7539 516.867 38.918 516.867 38.0117V37.5078C516.867 36.5312 517.011 35.6484 517.3 34.8594C517.589 34.0703 517.988 33.3945 518.495 32.832C519.003 32.2695 519.581 31.8398 520.23 31.543C520.886 31.2383 521.574 31.0859 522.292 31.0859C523.097 31.0859 523.812 31.2305 524.437 31.5195C525.062 31.8008 525.585 32.2031 526.007 32.7266C526.437 33.2422 526.761 33.8555 526.98 34.5664C527.199 35.2695 527.308 36.0469 527.308 36.8984V37.7539H517.71V36.5586H525.913V36.3945C525.898 35.6836 525.753 35.0195 525.48 34.4023C525.214 33.7773 524.816 33.2695 524.285 32.8789C523.753 32.4883 523.089 32.293 522.292 32.293C521.699 32.293 521.152 32.418 520.652 32.668C520.16 32.918 519.734 33.2773 519.374 33.7461C519.023 34.207 518.749 34.7578 518.554 35.3984C518.367 36.0312 518.273 36.7344 518.273 37.5078V38.0117C518.273 38.7148 518.374 39.3711 518.578 39.9805C518.788 40.582 519.085 41.1133 519.468 41.5742C519.859 42.0352 520.32 42.3945 520.851 42.6523C521.382 42.9102 521.968 43.0391 522.609 43.0391C523.359 43.0391 524.023 42.9023 524.601 42.6289C525.179 42.3477 525.699 41.9062 526.16 41.3047L527.038 41.9844C526.765 42.3906 526.421 42.7656 526.007 43.1094C525.601 43.4531 525.113 43.7266 524.542 43.9297C523.972 44.1328 523.308 44.2344 522.55 44.2344Z" fill="white"/>
<path d="M537.907 40.7656C537.907 40.4219 537.821 40.082 537.65 39.7461C537.478 39.4102 537.146 39.1016 536.653 38.8203C536.169 38.5391 535.454 38.3008 534.509 38.1055C533.806 37.9492 533.177 37.7734 532.622 37.5781C532.075 37.3828 531.614 37.1484 531.239 36.875C530.864 36.6016 530.579 36.2734 530.384 35.8906C530.189 35.5078 530.091 35.0547 530.091 34.5312C530.091 34.0625 530.193 33.6211 530.396 33.207C530.607 32.7852 530.903 32.418 531.286 32.1055C531.677 31.7852 532.146 31.5352 532.693 31.3555C533.247 31.1758 533.868 31.0859 534.556 31.0859C535.532 31.0859 536.368 31.2539 537.064 31.5898C537.767 31.918 538.302 32.3672 538.669 32.9375C539.044 33.5078 539.232 34.1523 539.232 34.8711H537.837C537.837 34.4336 537.708 34.0195 537.45 33.6289C537.2 33.2383 536.829 32.918 536.337 32.668C535.853 32.418 535.259 32.293 534.556 32.293C533.829 32.293 533.239 32.4023 532.786 32.6211C532.333 32.8398 532.001 33.1172 531.79 33.4531C531.587 33.7891 531.485 34.1367 531.485 34.4961C531.485 34.7773 531.528 35.0352 531.614 35.2695C531.708 35.4961 531.872 35.707 532.107 35.9023C532.349 36.0977 532.693 36.2812 533.138 36.4531C533.583 36.625 534.161 36.793 534.872 36.957C535.896 37.1836 536.732 37.4609 537.38 37.7891C538.036 38.1094 538.521 38.5078 538.833 38.9844C539.146 39.4531 539.302 40.0234 539.302 40.6953C539.302 41.2188 539.193 41.6992 538.974 42.1367C538.755 42.5664 538.439 42.9375 538.025 43.25C537.618 43.5625 537.126 43.8047 536.548 43.9766C535.978 44.1484 535.337 44.2344 534.626 44.2344C533.556 44.2344 532.65 44.0586 531.907 43.707C531.173 43.3477 530.614 42.8789 530.232 42.3008C529.857 41.7148 529.669 41.0938 529.669 40.4375H531.064C531.11 41.0938 531.318 41.6133 531.685 41.9961C532.052 42.3711 532.501 42.6367 533.032 42.793C533.571 42.9492 534.103 43.0273 534.626 43.0273C535.345 43.0273 535.946 42.9219 536.431 42.7109C536.915 42.5 537.282 42.2227 537.532 41.8789C537.782 41.5352 537.907 41.1641 537.907 40.7656Z" fill="white"/>
<path d="M544.065 41.7852V43.4258C544.065 44.1445 543.917 44.8359 543.62 45.5C543.323 46.1719 542.921 46.7383 542.413 47.1992L541.593 46.5898C541.835 46.2617 542.038 45.9336 542.202 45.6055C542.366 45.2852 542.487 44.9492 542.565 44.5977C542.651 44.2461 542.694 43.8672 542.694 43.4609V41.7852H544.065Z" fill="white"/>
<path d="M553.651 26H555.057V41.5391L554.963 44H553.651V26ZM563.881 37.543V37.7891C563.881 38.7344 563.772 39.6016 563.553 40.3906C563.334 41.1797 563.018 41.8633 562.604 42.4414C562.19 43.0117 561.682 43.4531 561.081 43.7656C560.487 44.0781 559.803 44.2344 559.03 44.2344C558.272 44.2344 557.6 44.1172 557.014 43.8828C556.428 43.6406 555.928 43.3008 555.514 42.8633C555.1 42.418 554.768 41.8984 554.518 41.3047C554.268 40.7031 554.092 40.043 553.991 39.3242V36.1953C554.108 35.4297 554.295 34.7344 554.553 34.1094C554.811 33.4844 555.143 32.9453 555.549 32.4922C555.963 32.0391 556.456 31.6914 557.026 31.4492C557.604 31.207 558.264 31.0859 559.006 31.0859C559.78 31.0859 560.467 31.2383 561.069 31.543C561.678 31.8398 562.19 32.2734 562.604 32.8438C563.018 33.4062 563.334 34.0859 563.553 34.8828C563.772 35.6719 563.881 36.5586 563.881 37.543ZM562.463 37.7891V37.543C562.463 36.8008 562.393 36.1133 562.252 35.4805C562.112 34.8477 561.889 34.2969 561.584 33.8281C561.288 33.3516 560.905 32.9805 560.436 32.7148C559.967 32.4492 559.405 32.3164 558.748 32.3164C558.077 32.3164 557.502 32.4297 557.026 32.6562C556.557 32.875 556.166 33.168 555.854 33.5352C555.549 33.8945 555.307 34.2891 555.127 34.7188C554.948 35.1484 554.815 35.5703 554.729 35.9844V39.6289C554.862 40.2148 555.092 40.7656 555.42 41.2812C555.748 41.7969 556.19 42.2148 556.745 42.5352C557.299 42.8477 557.975 43.0039 558.772 43.0039C559.413 43.0039 559.963 42.8711 560.424 42.6055C560.893 42.3398 561.276 41.9727 561.573 41.5039C561.877 41.0352 562.1 40.4844 562.241 39.8516C562.389 39.2188 562.463 38.5312 562.463 37.7891Z" fill="white"/>
<path d="M574.938 41.7266V35.1875C574.938 34.5859 574.813 34.0664 574.563 33.6289C574.313 33.1914 573.945 32.8555 573.461 32.6211C572.977 32.3867 572.379 32.2695 571.668 32.2695C571.012 32.2695 570.426 32.3867 569.91 32.6211C569.403 32.8477 569 33.1562 568.703 33.5469C568.414 33.9297 568.27 34.3555 568.27 34.8242L566.863 34.8125C566.863 34.3359 566.981 33.875 567.215 33.4297C567.449 32.9844 567.781 32.5859 568.211 32.2344C568.641 31.8828 569.153 31.6055 569.746 31.4023C570.348 31.1914 571.008 31.0859 571.727 31.0859C572.633 31.0859 573.43 31.2383 574.117 31.543C574.813 31.8477 575.356 32.3047 575.746 32.9141C576.137 33.5234 576.332 34.2891 576.332 35.2109V41.3398C576.332 41.7773 576.363 42.2305 576.426 42.6992C576.496 43.168 576.594 43.5547 576.719 43.8594V44H575.231C575.137 43.7188 575.063 43.3672 575.008 42.9453C574.961 42.5156 574.938 42.1094 574.938 41.7266ZM575.266 36.6172L575.289 37.6953H572.535C571.817 37.6953 571.172 37.7617 570.602 37.8945C570.039 38.0195 569.563 38.207 569.172 38.457C568.781 38.6992 568.481 38.9922 568.27 39.3359C568.067 39.6797 567.965 40.0703 567.965 40.5078C567.965 40.9609 568.078 41.375 568.305 41.75C568.539 42.125 568.867 42.4258 569.289 42.6523C569.719 42.8711 570.227 42.9805 570.813 42.9805C571.594 42.9805 572.281 42.8359 572.875 42.5469C573.477 42.2578 573.973 41.8789 574.363 41.4102C574.754 40.9414 575.016 40.4297 575.149 39.875L575.758 40.6836C575.656 41.0742 575.469 41.4766 575.195 41.8906C574.93 42.2969 574.582 42.6797 574.153 43.0391C573.723 43.3906 573.215 43.6797 572.629 43.9062C572.051 44.125 571.395 44.2344 570.66 44.2344C569.832 44.2344 569.11 44.0781 568.492 43.7656C567.883 43.4531 567.406 43.0273 567.063 42.4883C566.727 41.9414 566.559 41.3242 566.559 40.6367C566.559 40.0117 566.692 39.4531 566.957 38.9609C567.223 38.4609 567.606 38.0391 568.106 37.6953C568.613 37.3438 569.223 37.0781 569.934 36.8984C570.653 36.7109 571.457 36.6172 572.348 36.6172H575.266Z" fill="white"/>
<path d="M587.928 40.7656C587.928 40.4219 587.842 40.082 587.67 39.7461C587.498 39.4102 587.166 39.1016 586.674 38.8203C586.189 38.5391 585.475 38.3008 584.529 38.1055C583.826 37.9492 583.197 37.7734 582.643 37.5781C582.096 37.3828 581.635 37.1484 581.26 36.875C580.885 36.6016 580.6 36.2734 580.404 35.8906C580.209 35.5078 580.111 35.0547 580.111 34.5312C580.111 34.0625 580.213 33.6211 580.416 33.207C580.627 32.7852 580.924 32.418 581.307 32.1055C581.697 31.7852 582.166 31.5352 582.713 31.3555C583.268 31.1758 583.889 31.0859 584.576 31.0859C585.553 31.0859 586.389 31.2539 587.084 31.5898C587.787 31.918 588.322 32.3672 588.689 32.9375C589.064 33.5078 589.252 34.1523 589.252 34.8711H587.857C587.857 34.4336 587.728 34.0195 587.471 33.6289C587.221 33.2383 586.85 32.918 586.357 32.668C585.873 32.418 585.279 32.293 584.576 32.293C583.85 32.293 583.26 32.4023 582.807 32.6211C582.353 32.8398 582.021 33.1172 581.81 33.4531C581.607 33.7891 581.506 34.1367 581.506 34.4961C581.506 34.7773 581.549 35.0352 581.635 35.2695C581.728 35.4961 581.893 35.707 582.127 35.9023C582.369 36.0977 582.713 36.2812 583.158 36.4531C583.603 36.625 584.182 36.793 584.893 36.957C585.916 37.1836 586.752 37.4609 587.4 37.7891C588.057 38.1094 588.541 38.5078 588.853 38.9844C589.166 39.4531 589.322 40.0234 589.322 40.6953C589.322 41.2188 589.213 41.6992 588.994 42.1367C588.775 42.5664 588.459 42.9375 588.045 43.25C587.639 43.5625 587.146 43.8047 586.568 43.9766C585.998 44.1484 585.357 44.2344 584.646 44.2344C583.576 44.2344 582.67 44.0586 581.928 43.707C581.193 43.3477 580.635 42.8789 580.252 42.3008C579.877 41.7148 579.689 41.0938 579.689 40.4375H581.084C581.131 41.0938 581.338 41.6133 581.705 41.9961C582.072 42.3711 582.521 42.6367 583.053 42.793C583.592 42.9492 584.123 43.0273 584.646 43.0273C585.365 43.0273 585.967 42.9219 586.451 42.7109C586.935 42.5 587.303 42.2227 587.553 41.8789C587.803 41.5352 587.928 41.1641 587.928 40.7656Z" fill="white"/>
<path d="M597.531 31.3203V32.4688H591.179V31.3203H597.531ZM593.511 28.0625H594.906V40.918C594.906 41.5039 594.984 41.9453 595.14 42.2422C595.297 42.5391 595.5 42.7383 595.75 42.8398C596 42.9414 596.269 42.9922 596.558 42.9922C596.769 42.9922 596.972 42.9805 597.168 42.957C597.363 42.9258 597.539 42.8945 597.695 42.8633L597.754 44.0469C597.582 44.1016 597.359 44.1445 597.086 44.1758C596.812 44.2148 596.539 44.2344 596.265 44.2344C595.726 44.2344 595.25 44.1367 594.836 43.9414C594.422 43.7383 594.097 43.3945 593.863 42.9102C593.629 42.418 593.511 41.75 593.511 40.9062V28.0625Z" fill="white"/>
<path d="M608.423 41.7266V35.1875C608.423 34.5859 608.298 34.0664 608.048 33.6289C607.798 33.1914 607.431 32.8555 606.947 32.6211C606.462 32.3867 605.865 32.2695 605.154 32.2695C604.497 32.2695 603.912 32.3867 603.396 32.6211C602.888 32.8477 602.486 33.1562 602.189 33.5469C601.9 33.9297 601.755 34.3555 601.755 34.8242L600.349 34.8125C600.349 34.3359 600.466 33.875 600.701 33.4297C600.935 32.9844 601.267 32.5859 601.697 32.2344C602.126 31.8828 602.638 31.6055 603.232 31.4023C603.833 31.1914 604.494 31.0859 605.212 31.0859C606.119 31.0859 606.915 31.2383 607.603 31.543C608.298 31.8477 608.841 32.3047 609.232 32.9141C609.622 33.5234 609.818 34.2891 609.818 35.2109V41.3398C609.818 41.7773 609.849 42.2305 609.912 42.6992C609.982 43.168 610.08 43.5547 610.205 43.8594V44H608.716C608.622 43.7188 608.548 43.3672 608.494 42.9453C608.447 42.5156 608.423 42.1094 608.423 41.7266ZM608.751 36.6172L608.775 37.6953H606.021C605.302 37.6953 604.658 37.7617 604.087 37.8945C603.525 38.0195 603.048 38.207 602.658 38.457C602.267 38.6992 601.966 38.9922 601.755 39.3359C601.552 39.6797 601.451 40.0703 601.451 40.5078C601.451 40.9609 601.564 41.375 601.79 41.75C602.025 42.125 602.353 42.4258 602.775 42.6523C603.205 42.8711 603.712 42.9805 604.298 42.9805C605.08 42.9805 605.767 42.8359 606.361 42.5469C606.962 42.2578 607.458 41.8789 607.849 41.4102C608.24 40.9414 608.501 40.4297 608.634 39.875L609.244 40.6836C609.142 41.0742 608.955 41.4766 608.681 41.8906C608.415 42.2969 608.068 42.6797 607.638 43.0391C607.208 43.3906 606.701 43.6797 606.115 43.9062C605.537 44.125 604.88 44.2344 604.146 44.2344C603.318 44.2344 602.595 44.0781 601.978 43.7656C601.369 43.4531 600.892 43.0273 600.548 42.4883C600.212 41.9414 600.044 41.3242 600.044 40.6367C600.044 40.0117 600.177 39.4531 600.443 38.9609C600.708 38.4609 601.091 38.0391 601.591 37.6953C602.099 37.3438 602.708 37.0781 603.419 36.8984C604.138 36.7109 604.943 36.6172 605.833 36.6172H608.751Z" fill="white"/>
<path d="M621.243 33.9453V44H619.837V31.3203H621.185L621.243 33.9453ZM620.985 36.875L620.306 36.5234C620.352 35.7734 620.493 35.0703 620.727 34.4141C620.97 33.7578 621.306 33.1797 621.735 32.6797C622.165 32.1797 622.681 31.7891 623.282 31.5078C623.884 31.2266 624.567 31.0859 625.333 31.0859C625.95 31.0859 626.509 31.1719 627.009 31.3438C627.517 31.5078 627.946 31.7695 628.298 32.1289C628.657 32.4805 628.935 32.9414 629.13 33.5117C629.325 34.082 629.423 34.7656 629.423 35.5625V44H628.028V35.6094C628.028 34.7656 627.895 34.1055 627.63 33.6289C627.372 33.1523 627.009 32.8125 626.54 32.6094C626.079 32.4062 625.544 32.3047 624.935 32.3047C624.216 32.3047 623.606 32.4531 623.106 32.75C622.614 33.0391 622.212 33.418 621.899 33.8867C621.595 34.3477 621.368 34.8438 621.22 35.375C621.071 35.8984 620.993 36.3984 620.985 36.875ZM629.411 35.7734L628.474 35.7969C628.513 35.1797 628.653 34.5898 628.895 34.0273C629.145 33.4648 629.485 32.9648 629.915 32.5273C630.345 32.082 630.856 31.7305 631.45 31.4727C632.052 31.2148 632.727 31.0859 633.477 31.0859C634.134 31.0859 634.72 31.1758 635.235 31.3555C635.751 31.5273 636.185 31.8047 636.536 32.1875C636.895 32.5625 637.169 33.043 637.356 33.6289C637.544 34.2148 637.638 34.918 637.638 35.7383V44H636.231V35.7266C636.231 34.8281 636.099 34.1328 635.833 33.6406C635.575 33.1406 635.216 32.793 634.755 32.5977C634.294 32.4023 633.755 32.3047 633.138 32.3047C632.528 32.3125 631.993 32.4258 631.532 32.6445C631.071 32.8555 630.685 33.1367 630.372 33.4883C630.067 33.832 629.833 34.2031 629.669 34.6016C629.513 35 629.427 35.3906 629.411 35.7734Z" fill="white"/>
<path d="M646.339 44.2344C645.51 44.2344 644.749 44.082 644.053 43.7773C643.366 43.4727 642.764 43.043 642.249 42.4883C641.741 41.9336 641.346 41.2773 641.065 40.5195C640.792 39.7539 640.655 38.918 640.655 38.0117V37.5078C640.655 36.5312 640.8 35.6484 641.089 34.8594C641.378 34.0703 641.776 33.3945 642.284 32.832C642.792 32.2695 643.37 31.8398 644.018 31.543C644.675 31.2383 645.362 31.0859 646.081 31.0859C646.885 31.0859 647.6 31.2305 648.225 31.5195C648.85 31.8008 649.374 32.2031 649.796 32.7266C650.225 33.2422 650.55 33.8555 650.768 34.5664C650.987 35.2695 651.096 36.0469 651.096 36.8984V37.7539H641.499V36.5586H649.702V36.3945C649.686 35.6836 649.542 35.0195 649.268 34.4023C649.003 33.7773 648.604 33.2695 648.073 32.8789C647.542 32.4883 646.878 32.293 646.081 32.293C645.487 32.293 644.94 32.418 644.44 32.668C643.948 32.918 643.522 33.2773 643.163 33.7461C642.811 34.207 642.538 34.7578 642.343 35.3984C642.155 36.0312 642.061 36.7344 642.061 37.5078V38.0117C642.061 38.7148 642.163 39.3711 642.366 39.9805C642.577 40.582 642.874 41.1133 643.257 41.5742C643.647 42.0352 644.108 42.3945 644.639 42.6523C645.171 42.9102 645.757 43.0391 646.397 43.0391C647.147 43.0391 647.811 42.9023 648.389 42.6289C648.968 42.3477 649.487 41.9062 649.948 41.3047L650.827 41.9844C650.553 42.3906 650.21 42.7656 649.796 43.1094C649.389 43.4531 648.901 43.7266 648.331 43.9297C647.76 44.1328 647.096 44.2344 646.339 44.2344Z" fill="white"/>
<path d="M664.877 43.0273C665.471 43.0273 666.026 42.918 666.541 42.6992C667.065 42.4727 667.494 42.1406 667.83 41.7031C668.174 41.2578 668.369 40.7148 668.416 40.0742H669.752C669.713 40.8789 669.467 41.5977 669.014 42.2305C668.569 42.8555 667.983 43.3477 667.256 43.707C666.537 44.0586 665.744 44.2344 664.877 44.2344C663.994 44.2344 663.213 44.0742 662.533 43.7539C661.862 43.4336 661.299 42.9883 660.846 42.418C660.393 41.8398 660.049 41.168 659.815 40.4023C659.588 39.6289 659.475 38.7969 659.475 37.9062V37.4141C659.475 36.5234 659.588 35.6953 659.815 34.9297C660.049 34.1562 660.393 33.4844 660.846 32.9141C661.299 32.3359 661.862 31.8867 662.533 31.5664C663.205 31.2461 663.983 31.0859 664.865 31.0859C665.772 31.0859 666.584 31.2695 667.303 31.6367C668.03 32.0039 668.608 32.5234 669.037 33.1953C669.475 33.8672 669.713 34.6641 669.752 35.5859H668.416C668.377 34.9062 668.198 34.3203 667.877 33.8281C667.557 33.3359 667.135 32.957 666.612 32.6914C666.088 32.4258 665.506 32.293 664.865 32.293C664.147 32.293 663.533 32.4336 663.026 32.7148C662.518 32.9883 662.104 33.3672 661.783 33.8516C661.471 34.3281 661.24 34.875 661.092 35.4922C660.944 36.1016 660.869 36.7422 660.869 37.4141V37.9062C660.869 38.5859 660.94 39.2344 661.08 39.8516C661.229 40.4609 661.459 41.0039 661.772 41.4805C662.092 41.957 662.506 42.3359 663.014 42.6172C663.53 42.8906 664.151 43.0273 664.877 43.0273Z" fill="white"/>
<path d="M672.043 37.8594V37.4727C672.043 36.5508 672.176 35.6992 672.441 34.918C672.707 34.1367 673.086 33.4609 673.578 32.8906C674.078 32.3203 674.676 31.8789 675.371 31.5664C676.066 31.2461 676.84 31.0859 677.691 31.0859C678.551 31.0859 679.328 31.2461 680.023 31.5664C680.719 31.8789 681.316 32.3203 681.816 32.8906C682.316 33.4609 682.699 34.1367 682.965 34.918C683.23 35.6992 683.363 36.5508 683.363 37.4727V37.8594C683.363 38.7812 683.23 39.6328 682.965 40.4141C682.699 41.1875 682.316 41.8594 681.816 42.4297C681.324 43 680.73 43.4453 680.035 43.7656C679.34 44.0781 678.566 44.2344 677.715 44.2344C676.855 44.2344 676.078 44.0781 675.383 43.7656C674.688 43.4453 674.09 43 673.59 42.4297C673.09 41.8594 672.707 41.1875 672.441 40.4141C672.176 39.6328 672.043 38.7812 672.043 37.8594ZM673.438 37.4727V37.8594C673.438 38.5547 673.531 39.2148 673.719 39.8398C673.906 40.457 674.18 41.0078 674.539 41.4922C674.898 41.9688 675.344 42.3438 675.875 42.6172C676.406 42.8906 677.02 43.0273 677.715 43.0273C678.402 43.0273 679.008 42.8906 679.531 42.6172C680.062 42.3438 680.508 41.9688 680.867 41.4922C681.227 41.0078 681.496 40.457 681.676 39.8398C681.863 39.2148 681.957 38.5547 681.957 37.8594V37.4727C681.957 36.7852 681.863 36.1328 681.676 35.5156C681.496 34.8984 681.223 34.3477 680.855 33.8633C680.496 33.3789 680.051 32.9961 679.52 32.7148C678.988 32.4336 678.379 32.293 677.691 32.293C677.004 32.293 676.395 32.4336 675.863 32.7148C675.34 32.9961 674.895 33.3789 674.527 33.8633C674.168 34.3477 673.895 34.8984 673.707 35.5156C673.527 36.1328 673.438 36.7852 673.438 37.4727Z" fill="white"/>
<path d="M687.904 34.0273V44H686.51V31.3203H687.845L687.904 34.0273ZM687.588 36.875L686.967 36.5234C687.013 35.7734 687.166 35.0703 687.424 34.4141C687.681 33.7578 688.029 33.1797 688.467 32.6797C688.912 32.1797 689.431 31.7891 690.025 31.5078C690.627 31.2266 691.291 31.0859 692.017 31.0859C692.65 31.0859 693.217 31.1719 693.717 31.3438C694.217 31.5156 694.642 31.7891 694.994 32.1641C695.345 32.5391 695.611 33.0195 695.791 33.6055C695.978 34.1914 696.072 34.9062 696.072 35.75V44H694.666V35.7383C694.666 34.8633 694.545 34.1797 694.302 33.6875C694.06 33.1875 693.717 32.832 693.271 32.6211C692.826 32.4102 692.299 32.3047 691.689 32.3047C691.017 32.3047 690.427 32.4531 689.92 32.75C689.42 33.0391 688.998 33.418 688.654 33.8867C688.318 34.3477 688.06 34.8438 687.881 35.375C687.701 35.8984 687.603 36.3984 687.588 36.875Z" fill="white"/>
<path d="M704.738 31.3203V32.4688H698.386V31.3203H704.738ZM700.718 28.0625H702.113V40.918C702.113 41.5039 702.191 41.9453 702.347 42.2422C702.503 42.5391 702.707 42.7383 702.957 42.8398C703.207 42.9414 703.476 42.9922 703.765 42.9922C703.976 42.9922 704.179 42.9805 704.375 42.957C704.57 42.9258 704.746 42.8945 704.902 42.8633L704.96 44.0469C704.789 44.1016 704.566 44.1445 704.292 44.1758C704.019 44.2148 703.746 44.2344 703.472 44.2344C702.933 44.2344 702.457 44.1367 702.042 43.9414C701.628 43.7383 701.304 43.3945 701.07 42.9102C700.835 42.418 700.718 41.75 700.718 40.9062V28.0625Z" fill="white"/>
<path d="M715.63 41.7266V35.1875C715.63 34.5859 715.505 34.0664 715.255 33.6289C715.005 33.1914 714.638 32.8555 714.154 32.6211C713.669 32.3867 713.072 32.2695 712.361 32.2695C711.704 32.2695 711.118 32.3867 710.603 32.6211C710.095 32.8477 709.693 33.1562 709.396 33.5469C709.107 33.9297 708.962 34.3555 708.962 34.8242L707.556 34.8125C707.556 34.3359 707.673 33.875 707.908 33.4297C708.142 32.9844 708.474 32.5859 708.904 32.2344C709.333 31.8828 709.845 31.6055 710.439 31.4023C711.04 31.1914 711.701 31.0859 712.419 31.0859C713.326 31.0859 714.122 31.2383 714.81 31.543C715.505 31.8477 716.048 32.3047 716.439 32.9141C716.829 33.5234 717.025 34.2891 717.025 35.2109V41.3398C717.025 41.7773 717.056 42.2305 717.118 42.6992C717.189 43.168 717.286 43.5547 717.411 43.8594V44H715.923C715.829 43.7188 715.755 43.3672 715.701 42.9453C715.654 42.5156 715.63 42.1094 715.63 41.7266ZM715.958 36.6172L715.982 37.6953H713.228C712.509 37.6953 711.865 37.7617 711.294 37.8945C710.732 38.0195 710.255 38.207 709.865 38.457C709.474 38.6992 709.173 38.9922 708.962 39.3359C708.759 39.6797 708.658 40.0703 708.658 40.5078C708.658 40.9609 708.771 41.375 708.997 41.75C709.232 42.125 709.56 42.4258 709.982 42.6523C710.411 42.8711 710.919 42.9805 711.505 42.9805C712.286 42.9805 712.974 42.8359 713.568 42.5469C714.169 42.2578 714.665 41.8789 715.056 41.4102C715.447 40.9414 715.708 40.4297 715.841 39.875L716.451 40.6836C716.349 41.0742 716.161 41.4766 715.888 41.8906C715.622 42.2969 715.275 42.6797 714.845 43.0391C714.415 43.3906 713.908 43.6797 713.322 43.9062C712.743 44.125 712.087 44.2344 711.353 44.2344C710.525 44.2344 709.802 44.0781 709.185 43.7656C708.576 43.4531 708.099 43.0273 707.755 42.4883C707.419 41.9414 707.251 41.3242 707.251 40.6367C707.251 40.0117 707.384 39.4531 707.65 38.9609C707.915 38.4609 708.298 38.0391 708.798 37.6953C709.306 37.3438 709.915 37.0781 710.626 36.8984C711.345 36.7109 712.15 36.6172 713.04 36.6172H715.958Z" fill="white"/>
<path d="M725.819 31.3203V32.4688H719.468V31.3203H725.819ZM721.8 28.0625H723.194V40.918C723.194 41.5039 723.273 41.9453 723.429 42.2422C723.585 42.5391 723.788 42.7383 724.038 42.8398C724.288 42.9414 724.558 42.9922 724.847 42.9922C725.058 42.9922 725.261 42.9805 725.456 42.957C725.651 42.9258 725.827 42.8945 725.983 42.8633L726.042 44.0469C725.87 44.1016 725.648 44.1445 725.374 44.1758C725.101 44.2148 724.827 44.2344 724.554 44.2344C724.015 44.2344 723.538 44.1367 723.124 43.9414C722.71 43.7383 722.386 43.3945 722.151 42.9102C721.917 42.418 721.8 41.75 721.8 40.9062V28.0625Z" fill="white"/>
<path d="M736.712 41.7266V35.1875C736.712 34.5859 736.587 34.0664 736.337 33.6289C736.087 33.1914 735.72 32.8555 735.235 32.6211C734.751 32.3867 734.153 32.2695 733.442 32.2695C732.786 32.2695 732.2 32.3867 731.684 32.6211C731.177 32.8477 730.774 33.1562 730.477 33.5469C730.188 33.9297 730.044 34.3555 730.044 34.8242L728.638 34.8125C728.638 34.3359 728.755 33.875 728.989 33.4297C729.223 32.9844 729.555 32.5859 729.985 32.2344C730.415 31.8828 730.927 31.6055 731.52 31.4023C732.122 31.1914 732.782 31.0859 733.501 31.0859C734.407 31.0859 735.204 31.2383 735.891 31.543C736.587 31.8477 737.13 32.3047 737.52 32.9141C737.911 33.5234 738.106 34.2891 738.106 35.2109V41.3398C738.106 41.7773 738.138 42.2305 738.2 42.6992C738.27 43.168 738.368 43.5547 738.493 43.8594V44H737.005C736.911 43.7188 736.837 43.3672 736.782 42.9453C736.735 42.5156 736.712 42.1094 736.712 41.7266ZM737.04 36.6172L737.063 37.6953H734.309C733.591 37.6953 732.946 37.7617 732.376 37.8945C731.813 38.0195 731.337 38.207 730.946 38.457C730.555 38.6992 730.255 38.9922 730.044 39.3359C729.841 39.6797 729.739 40.0703 729.739 40.5078C729.739 40.9609 729.852 41.375 730.079 41.75C730.313 42.125 730.641 42.4258 731.063 42.6523C731.493 42.8711 732.001 42.9805 732.587 42.9805C733.368 42.9805 734.055 42.8359 734.649 42.5469C735.251 42.2578 735.747 41.8789 736.138 41.4102C736.528 40.9414 736.79 40.4297 736.923 39.875L737.532 40.6836C737.43 41.0742 737.243 41.4766 736.97 41.8906C736.704 42.2969 736.356 42.6797 735.927 43.0391C735.497 43.3906 734.989 43.6797 734.403 43.9062C733.825 44.125 733.169 44.2344 732.434 44.2344C731.606 44.2344 730.884 44.0781 730.266 43.7656C729.657 43.4531 729.18 43.0273 728.837 42.4883C728.501 41.9414 728.333 41.3242 728.333 40.6367C728.333 40.0117 728.466 39.4531 728.731 38.9609C728.997 38.4609 729.38 38.0391 729.88 37.6953C730.388 37.3438 730.997 37.0781 731.708 36.8984C732.427 36.7109 733.231 36.6172 734.122 36.6172H737.04Z" fill="white"/>
<path d="M743.503 33.418V44H742.108V31.3203H743.467L743.503 33.418ZM747.991 31.2266L747.956 32.5156C747.799 32.4922 747.647 32.4727 747.499 32.457C747.35 32.4414 747.19 32.4336 747.018 32.4336C746.409 32.4336 745.874 32.5469 745.413 32.7734C744.96 32.9922 744.577 33.3008 744.264 33.6992C743.952 34.0898 743.713 34.5508 743.549 35.082C743.385 35.6055 743.292 36.168 743.268 36.7695L742.753 36.9688C742.753 36.1406 742.838 35.3711 743.01 34.6602C743.182 33.9492 743.444 33.3281 743.795 32.7969C744.155 32.2578 744.604 31.8398 745.143 31.543C745.69 31.2383 746.331 31.0859 747.065 31.0859C747.245 31.0859 747.42 31.1016 747.592 31.1328C747.772 31.1562 747.905 31.1875 747.991 31.2266Z" fill="white"/>
<path d="M377.895 83.125C377.658 83.125 377.433 83.039 377.267 82.8885C377.041 82.6842 376.946 82.3832 377.029 82.1037L378.524 77.04C377.528 75.3629 377.006 73.4708 377.006 71.5571C377.006 65.1819 382.724 60 389.76 60C396.796 60 402.514 65.1819 402.514 71.5571C402.514 77.9324 396.796 83.1143 389.76 83.1143C387.612 83.1143 385.512 82.6305 383.638 81.7059L378.133 83.0928C378.05 83.1143 377.978 83.125 377.895 83.125ZM383.756 80.0395C383.911 80.0395 384.065 80.0826 384.207 80.1471C385.88 81.0395 387.802 81.5124 389.76 81.5124C395.811 81.5124 400.735 77.0508 400.735 71.5679C400.735 66.085 395.811 61.6234 389.76 61.6234C383.709 61.6234 378.785 66.085 378.785 71.5679C378.785 73.3203 379.295 75.0296 380.256 76.5347C380.375 76.7175 380.411 76.9433 380.351 77.1475L379.165 81.1684L383.531 80.0718C383.602 80.0503 383.685 80.0395 383.756 80.0395Z" fill="white"/>
<path d="M393.011 77.7601C392.276 77.7601 391.516 77.6096 390.721 77.2978C389.974 77.0075 389.226 76.6205 388.503 76.1367C387.791 75.6637 387.091 75.1261 386.45 74.5456C385.809 73.9543 385.216 73.3307 384.694 72.6857C384.16 72.0084 383.733 71.3418 383.425 70.686C383.092 69.9765 382.926 69.2777 382.926 68.6111C382.926 68.1381 383.021 67.6865 383.199 67.2673C383.389 66.8265 383.698 66.4287 384.101 66.0847C384.86 65.4074 385.952 65.1601 386.818 65.5364C387.115 65.6546 387.364 65.8482 387.554 66.1062L388.93 67.8585C389.072 68.0306 389.179 68.2133 389.262 68.3961C389.357 68.6111 389.416 68.8261 389.416 69.0304C389.416 69.3099 389.333 69.5894 389.167 69.8367C389.06 69.998 388.906 70.1915 388.704 70.3742L388.55 70.5248C388.621 70.6108 388.704 70.7183 388.835 70.8473C389.084 71.1053 389.357 71.3848 389.654 71.6536C389.95 71.9116 390.247 72.1696 390.543 72.3954C390.686 72.5029 390.805 72.5889 390.899 72.6427L391.065 72.4922C391.279 72.2987 391.493 72.1481 391.706 72.0514C392.098 71.8256 392.703 71.7719 393.237 71.9761C393.426 72.0406 393.616 72.1374 393.818 72.2664L395.799 73.535C396.072 73.707 396.286 73.9435 396.428 74.2123C396.547 74.4811 396.594 74.7176 396.594 74.9649C396.594 75.2874 396.511 75.5992 396.357 75.9002C396.203 76.1797 396.025 76.427 395.811 76.6527C395.432 77.029 394.993 77.3085 394.518 77.4913C394.043 77.6741 393.533 77.7601 393.011 77.7601ZM385.952 66.9877C385.881 66.9877 385.643 66.9877 385.347 67.2565C385.121 67.45 384.967 67.6543 384.86 67.8801C384.754 68.1058 384.706 68.3639 384.706 68.6219C384.706 69.0734 384.825 69.5572 385.062 70.0732C385.311 70.6108 385.679 71.1806 386.13 71.7504C386.592 72.3201 387.115 72.8899 387.696 73.4167C388.277 73.9328 388.894 74.4166 389.535 74.8466C390.152 75.2551 390.781 75.5777 391.41 75.8249C392.311 76.1797 393.142 76.2657 393.818 76.0077C394.055 75.9217 394.269 75.7712 394.482 75.5777C394.589 75.4701 394.672 75.3626 394.743 75.2229C394.779 75.1476 394.803 75.0616 394.803 74.9864C394.803 74.9649 394.803 74.9326 394.767 74.8681L392.786 73.621C392.703 73.5672 392.62 73.5242 392.548 73.5027C392.501 73.5242 392.43 73.5565 392.299 73.6748L391.849 74.0833C391.504 74.3951 390.959 74.4811 390.52 74.3413L390.306 74.2553C390.033 74.1263 389.725 73.9328 389.381 73.664C389.048 73.406 388.728 73.1372 388.384 72.8362C388.052 72.5244 387.755 72.2341 387.471 71.9331C387.162 71.5998 386.948 71.3311 386.806 71.1053L386.676 70.8258C386.64 70.7183 386.628 70.6 386.628 70.4925C386.628 70.1915 386.747 69.9227 386.972 69.7077L387.423 69.2884C387.554 69.1702 387.601 69.1057 387.625 69.0627C387.589 68.9874 387.542 68.9229 387.482 68.8476L386.094 67.0738L385.952 66.9877Z" fill="white"/>
</svg>
